<svg xmlns="http://www.w3.org/2000/svg" width="900" height="900" viewBox="0 0 900 900"><rect width="900" height="900" fill="#0a0e17"/><path d="M896.9 144.0 L803.6 58.5 L795.6 93.1 L735.9 143.2 L674.9 41.3 L632.7 154.1" fill="none" stroke="#FF6B4A" stroke-width="1.5" opacity="0.30"/><path d="M865.5 785.6 L969.4 707.6 L852.4 866.7 L814.6 972.4 L822.3 1131.0 L745.0 1255.7" fill="none" stroke="#38E08A" stroke-width="1.5" opacity="0.30"/><path d="M282.3 311.1 L301.7 272.5 L282.5 187.6 L389.5 82.3 L262.3 47.6 L270.3 -27.1" fill="none" stroke="#A56BFF" stroke-width="1.5" opacity="0.30"/><path d="M564.0 28.2 L509.3 -127.1 L455.5 -201.7 L394.3 -74.2 L371.2 -18.0 L402.7 32.8" fill="none" stroke="#38E08A" stroke-width="1.5" opacity="0.30"/><path d="M438.3 214.9 L464.4 67.0 L346.9 -29.0 L381.6 -149.0 L429.0 -201.6 L412.1 -271.8" fill="none" stroke="#A56BFF" stroke-width="1.5" opacity="0.30"/><path d="M336.4 328.9 L270.7 263.7 L355.3 198.4 L305.6 248.2 L423.9 310.4 L403.6 298.9" fill="none" stroke="#A56BFF" stroke-width="1.5" opacity="0.30"/><path d="M711.0 315.0 L857.2 454.4 L792.4 570.2 L890.8 556.1 L814.8 577.5 L917.1 513.2" fill="none" stroke="#FF6B4A" stroke-width="1.5" opacity="0.30"/><path d="M297.6 626.3 L457.0 698.0 L362.6 597.3 L353.9 755.6 L314.3 647.6 L397.2 640.1" fill="none" stroke="#FF6B4A" stroke-width="1.5" opacity="0.30"/><path d="M819.2 612.3 L851.9 609.3 L745.1 707.8 L845.6 818.2 L858.0 839.8 L963.2 686.7" fill="none" stroke="#FF6B4A" stroke-width="1.5" opacity="0.30"/><path d="M67.7 469.1 L186.1 605.3 L195.4 543.9 L276.4 577.6 L392.2 486.3 L281.0 524.1" fill="none" stroke="#38E08A" stroke-width="1.5" opacity="0.30"/><path d="M509.2 203.0 L614.2 280.2 L696.3 301.8 L767.0 352.5 L891.7 418.3 L953.9 573.2" fill="none" stroke="#38E08A" stroke-width="1.5" opacity="0.30"/><path d="M660.9 812.3 L617.8 717.5 L765.9 784.0 L668.2 819.3 L516.0 816.6 L565.9 819.7" fill="none" stroke="#A56BFF" stroke-width="1.5" opacity="0.30"/><circle cx="259.2" cy="679.2" r="286.5" fill="#FF6B4A" opacity="0.10"/><circle cx="259.2" cy="679.2" r="143.2" fill="#FF6B4A" opacity="0.22"/><circle cx="259.2" cy="679.2" r="43.0" fill="#ffffff" opacity="0.85"/><circle cx="33.3" cy="403.1" r="123.7" fill="#FF6B4A" opacity="0.10"/><circle cx="33.3" cy="403.1" r="61.9" fill="#FF6B4A" opacity="0.22"/><circle cx="33.3" cy="403.1" r="18.6" fill="#ffffff" opacity="0.85"/><circle cx="188.5" cy="681.0" r="261.1" fill="#38E08A" opacity="0.10"/><circle cx="188.5" cy="681.0" r="130.5" fill="#38E08A" opacity="0.22"/><circle cx="188.5" cy="681.0" r="39.2" fill="#ffffff" opacity="0.85"/><circle cx="617.9" cy="451.0" r="73.3" fill="#FF6B4A" opacity="0.10"/><circle cx="617.9" cy="451.0" r="36.6" fill="#FF6B4A" opacity="0.22"/><circle cx="617.9" cy="451.0" r="11.0" fill="#ffffff" opacity="0.85"/><circle cx="204.8" cy="721.9" r="275.0" fill="#38E08A" opacity="0.10"/><circle cx="204.8" cy="721.9" r="137.5" fill="#38E08A" opacity="0.22"/><circle cx="204.8" cy="721.9" r="41.2" fill="#ffffff" opacity="0.85"/><circle cx="716.5" cy="358.0" r="98.0" fill="#A56BFF" opacity="0.10"/><circle cx="716.5" cy="358.0" r="49.0" fill="#A56BFF" opacity="0.22"/><circle cx="716.5" cy="358.0" r="14.7" fill="#ffffff" opacity="0.85"/><circle cx="244.0" cy="637.3" r="106.1" fill="#A56BFF" opacity="0.10"/><circle cx="244.0" cy="637.3" r="53.0" fill="#A56BFF" opacity="0.22"/><circle cx="244.0" cy="637.3" r="15.9" fill="#ffffff" opacity="0.85"/><circle cx="234.8" cy="771.4" r="98.2" fill="#38E08A" opacity="0.10"/><circle cx="234.8" cy="771.4" r="49.1" fill="#38E08A" opacity="0.22"/><circle cx="234.8" cy="771.4" r="14.7" fill="#ffffff" opacity="0.85"/><circle cx="186.8" cy="436.6" r="145.2" fill="#38E08A" opacity="0.10"/><circle cx="186.8" cy="436.6" r="72.6" fill="#38E08A" opacity="0.22"/><circle cx="186.8" cy="436.6" r="21.8" fill="#ffffff" opacity="0.85"/><circle cx="124.3" cy="499.8" r="283.2" fill="#FF6B4A" opacity="0.10"/><circle cx="124.3" cy="499.8" r="141.6" fill="#FF6B4A" opacity="0.22"/><circle cx="124.3" cy="499.8" r="42.5" fill="#ffffff" opacity="0.85"/><circle cx="722.7" cy="584.2" r="64.7" fill="#38E08A" opacity="0.10"/><circle cx="722.7" cy="584.2" r="32.3" fill="#38E08A" opacity="0.22"/><circle cx="722.7" cy="584.2" r="9.7" fill="#ffffff" opacity="0.85"/><circle cx="874.2" cy="521.2" r="195.4" fill="#38E08A" opacity="0.10"/><circle cx="874.2" cy="521.2" r="97.7" fill="#38E08A" opacity="0.22"/><circle cx="874.2" cy="521.2" r="29.3" fill="#ffffff" opacity="0.85"/><circle cx="22.7" cy="547.1" r="58.3" fill="#A56BFF" opacity="0.10"/><circle cx="22.7" cy="547.1" r="29.2" fill="#A56BFF" opacity="0.22"/><circle cx="22.7" cy="547.1" r="8.7" fill="#ffffff" opacity="0.85"/><circle cx="243.8" cy="272.3" r="353.3" fill="#FF6B4A" opacity="0.10"/><circle cx="243.8" cy="272.3" r="176.6" fill="#FF6B4A" opacity="0.22"/><circle cx="243.8" cy="272.3" r="53.0" fill="#ffffff" opacity="0.85"/><circle cx="142.1" cy="133.5" r="282.9" fill="#38E08A" opacity="0.10"/><circle cx="142.1" cy="133.5" r="141.4" fill="#38E08A" opacity="0.22"/><circle cx="142.1" cy="133.5" r="42.4" fill="#ffffff" opacity="0.85"/><circle cx="722.0" cy="825.5" r="307.5" fill="#FF6B4A" opacity="0.10"/><circle cx="722.0" cy="825.5" r="153.8" fill="#FF6B4A" opacity="0.22"/><circle cx="722.0" cy="825.5" r="46.1" fill="#ffffff" opacity="0.85"/><circle cx="11.3" cy="238.2" r="180.6" fill="#FF6B4A" opacity="0.10"/><circle cx="11.3" cy="238.2" r="90.3" fill="#FF6B4A" opacity="0.22"/><circle cx="11.3" cy="238.2" r="27.1" fill="#ffffff" opacity="0.85"/><circle cx="306.2" cy="663.0" r="178.9" fill="#FF6B4A" opacity="0.10"/><circle cx="306.2" cy="663.0" r="89.5" fill="#FF6B4A" opacity="0.22"/><circle cx="306.2" cy="663.0" r="26.8" fill="#ffffff" opacity="0.85"/><circle cx="146.2" cy="648.7" r="265.8" fill="#A56BFF" opacity="0.10"/><circle cx="146.2" cy="648.7" r="132.9" fill="#A56BFF" opacity="0.22"/><circle cx="146.2" cy="648.7" r="39.9" fill="#ffffff" opacity="0.85"/><circle cx="803.6" cy="278.9" r="188.6" fill="#38E08A" opacity="0.10"/><circle cx="803.6" cy="278.9" r="94.3" fill="#38E08A" opacity="0.22"/><circle cx="803.6" cy="278.9" r="28.3" fill="#ffffff" opacity="0.85"/><circle cx="174.7" cy="18.2" r="159.4" fill="#FF6B4A" opacity="0.10"/><circle cx="174.7" cy="18.2" r="79.7" fill="#FF6B4A" opacity="0.22"/><circle cx="174.7" cy="18.2" r="23.9" fill="#ffffff" opacity="0.85"/><circle cx="719.4" cy="378.4" r="275.2" fill="#A56BFF" opacity="0.10"/><circle cx="719.4" cy="378.4" r="137.6" fill="#A56BFF" opacity="0.22"/><circle cx="719.4" cy="378.4" r="41.3" fill="#ffffff" opacity="0.85"/><circle cx="616.6" cy="819.8" r="205.1" fill="#FF6B4A" opacity="0.10"/><circle cx="616.6" cy="819.8" r="102.6" fill="#FF6B4A" opacity="0.22"/><circle cx="616.6" cy="819.8" r="30.8" fill="#ffffff" opacity="0.85"/><circle cx="53.1" cy="221.9" r="143.6" fill="#A56BFF" opacity="0.10"/><circle cx="53.1" cy="221.9" r="71.8" fill="#A56BFF" opacity="0.22"/><circle cx="53.1" cy="221.9" r="21.5" fill="#ffffff" opacity="0.85"/><circle cx="600.9" cy="175.9" r="102.0" fill="#A56BFF" opacity="0.10"/><circle cx="600.9" cy="175.9" r="51.0" fill="#A56BFF" opacity="0.22"/><circle cx="600.9" cy="175.9" r="15.3" fill="#ffffff" opacity="0.85"/><circle cx="849.2" cy="98.8" r="335.5" fill="#A56BFF" opacity="0.10"/><circle cx="849.2" cy="98.8" r="167.7" fill="#A56BFF" opacity="0.22"/><circle cx="849.2" cy="98.8" r="50.3" fill="#ffffff" opacity="0.85"/><circle cx="805.8" cy="440.7" r="76.9" fill="#FF6B4A" opacity="0.10"/><circle cx="805.8" cy="440.7" r="38.5" fill="#FF6B4A" opacity="0.22"/><circle cx="805.8" cy="440.7" r="11.5" fill="#ffffff" opacity="0.85"/><circle cx="506.2" cy="156.5" r="319.4" fill="#A56BFF" opacity="0.10"/><circle cx="506.2" cy="156.5" r="159.7" fill="#A56BFF" opacity="0.22"/><circle cx="506.2" cy="156.5" r="47.9" fill="#ffffff" opacity="0.85"/><circle cx="706.1" cy="195.4" r="241.9" fill="#A56BFF" opacity="0.10"/><circle cx="706.1" cy="195.4" r="120.9" fill="#A56BFF" opacity="0.22"/><circle cx="706.1" cy="195.4" r="36.3" fill="#ffffff" opacity="0.85"/><circle cx="440.4" cy="790.1" r="87.6" fill="#A56BFF" opacity="0.10"/><circle cx="440.4" cy="790.1" r="43.8" fill="#A56BFF" opacity="0.22"/><circle cx="440.4" cy="790.1" r="13.1" fill="#ffffff" opacity="0.85"/><circle cx="332.5" cy="608.0" r="270.9" fill="#FF6B4A" opacity="0.10"/><circle cx="332.5" cy="608.0" r="135.5" fill="#FF6B4A" opacity="0.22"/><circle cx="332.5" cy="608.0" r="40.6" fill="#ffffff" opacity="0.85"/><circle cx="774.5" cy="49.0" r="313.8" fill="#FF6B4A" opacity="0.10"/><circle cx="774.5" cy="49.0" r="156.9" fill="#FF6B4A" opacity="0.22"/><circle cx="774.5" cy="49.0" r="47.1" fill="#ffffff" opacity="0.85"/><circle cx="607.3" cy="382.5" r="233.0" fill="#FF6B4A" opacity="0.10"/><circle cx="607.3" cy="382.5" r="116.5" fill="#FF6B4A" opacity="0.22"/><circle cx="607.3" cy="382.5" r="34.9" fill="#ffffff" opacity="0.85"/><circle cx="743.6" cy="420.0" r="221.9" fill="#38E08A" opacity="0.10"/><circle cx="743.6" cy="420.0" r="110.9" fill="#38E08A" opacity="0.22"/><circle cx="743.6" cy="420.0" r="33.3" fill="#ffffff" opacity="0.85"/><circle cx="117.5" cy="433.9" r="205.3" fill="#38E08A" opacity="0.10"/><circle cx="117.5" cy="433.9" r="102.7" fill="#38E08A" opacity="0.22"/><circle cx="117.5" cy="433.9" r="30.8" fill="#ffffff" opacity="0.85"/><circle cx="93.6" cy="287.5" r="284.5" fill="#A56BFF" opacity="0.10"/><circle cx="93.6" cy="287.5" r="142.2" fill="#A56BFF" opacity="0.22"/><circle cx="93.6" cy="287.5" r="42.7" fill="#ffffff" opacity="0.85"/><circle cx="4.5" cy="716.9" r="216.2" fill="#A56BFF" opacity="0.10"/><circle cx="4.5" cy="716.9" r="108.1" fill="#A56BFF" opacity="0.22"/><circle cx="4.5" cy="716.9" r="32.4" fill="#ffffff" opacity="0.85"/><circle cx="357.6" cy="862.5" r="142.4" fill="#38E08A" opacity="0.10"/><circle cx="357.6" cy="862.5" r="71.2" fill="#38E08A" opacity="0.22"/><circle cx="357.6" cy="862.5" r="21.4" fill="#ffffff" opacity="0.85"/><circle cx="464.9" cy="65.0" r="211.4" fill="#FF6B4A" opacity="0.10"/><circle cx="464.9" cy="65.0" r="105.7" fill="#FF6B4A" opacity="0.22"/><circle cx="464.9" cy="65.0" r="31.7" fill="#ffffff" opacity="0.85"/><text x="874" y="874" text-anchor="end" font-family="sans-serif" font-size="22" fill="#E4B24C" opacity="0.9">WARHOOK LEO CROC</text></svg>