<svg xmlns="http://www.w3.org/2000/svg" width="1200" height="600" viewBox="0 0 1200 600"><rect width="1200" height="600" fill="#0e1a2b"/><circle cx="14.0" cy="37.2" r="215.8" fill="#FF3EA5" opacity="0.10"/><circle cx="14.0" cy="37.2" r="47.5" fill="#ffffff" opacity="0.30"/><circle cx="625.7" cy="243.3" r="123.9" fill="#E4B24C" opacity="0.10"/><circle cx="625.7" cy="243.3" r="27.3" fill="#ffffff" opacity="0.30"/><circle cx="664.0" cy="437.9" r="86.4" fill="#E4B24C" opacity="0.10"/><circle cx="664.0" cy="437.9" r="19.0" fill="#ffffff" opacity="0.30"/><circle cx="916.9" cy="311.0" r="75.5" fill="#12E6C4" opacity="0.10"/><circle cx="916.9" cy="311.0" r="16.6" fill="#ffffff" opacity="0.30"/><circle cx="351.9" cy="320.8" r="93.3" fill="#FF3EA5" opacity="0.10"/><circle cx="351.9" cy="320.8" r="20.5" fill="#ffffff" opacity="0.30"/><circle cx="297.0" cy="526.7" r="74.3" fill="#E4B24C" opacity="0.10"/><circle cx="297.0" cy="526.7" r="16.4" fill="#ffffff" opacity="0.30"/><circle cx="185.6" cy="174.6" r="138.6" fill="#FF3EA5" opacity="0.10"/><circle cx="185.6" cy="174.6" r="30.5" fill="#ffffff" opacity="0.30"/><circle cx="89.4" cy="547.8" r="139.7" fill="#12E6C4" opacity="0.10"/><circle cx="89.4" cy="547.8" r="30.7" fill="#ffffff" opacity="0.30"/><circle cx="816.1" cy="579.6" r="152.4" fill="#FF3EA5" opacity="0.10"/><circle cx="816.1" cy="579.6" r="33.5" fill="#ffffff" opacity="0.30"/><circle cx="993.2" cy="24.0" r="71.5" fill="#12E6C4" opacity="0.10"/><circle cx="993.2" cy="24.0" r="15.7" fill="#ffffff" opacity="0.30"/><circle cx="510.4" cy="12.1" r="55.9" fill="#FF3EA5" opacity="0.10"/><circle cx="510.4" cy="12.1" r="12.3" fill="#ffffff" opacity="0.30"/><circle cx="442.8" cy="256.0" r="124.4" fill="#FF3EA5" opacity="0.10"/><circle cx="442.8" cy="256.0" r="27.4" fill="#ffffff" opacity="0.30"/><circle cx="843.9" cy="413.0" r="99.5" fill="#12E6C4" opacity="0.10"/><circle cx="843.9" cy="413.0" r="21.9" fill="#ffffff" opacity="0.30"/><circle cx="166.5" cy="80.0" r="204.3" fill="#E4B24C" opacity="0.10"/><circle cx="166.5" cy="80.0" r="45.0" fill="#ffffff" opacity="0.30"/><circle cx="228.5" cy="379.3" r="100.6" fill="#E4B24C" opacity="0.10"/><circle cx="228.5" cy="379.3" r="22.1" fill="#ffffff" opacity="0.30"/><circle cx="821.1" cy="552.8" r="138.6" fill="#FF3EA5" opacity="0.10"/><circle cx="821.1" cy="552.8" r="30.5" fill="#ffffff" opacity="0.30"/><circle cx="786.3" cy="551.9" r="61.1" fill="#12E6C4" opacity="0.10"/><circle cx="786.3" cy="551.9" r="13.4" fill="#ffffff" opacity="0.30"/><circle cx="779.0" cy="534.6" r="212.9" fill="#FF3EA5" opacity="0.10"/><circle cx="779.0" cy="534.6" r="46.8" fill="#ffffff" opacity="0.30"/><circle cx="713.1" cy="578.3" r="214.2" fill="#12E6C4" opacity="0.10"/><circle cx="713.1" cy="578.3" r="47.1" fill="#ffffff" opacity="0.30"/><circle cx="982.2" cy="3.4" r="132.9" fill="#E4B24C" opacity="0.10"/><circle cx="982.2" cy="3.4" r="29.2" fill="#ffffff" opacity="0.30"/><circle cx="869.1" cy="329.7" r="176.0" fill="#FF3EA5" opacity="0.10"/><circle cx="869.1" cy="329.7" r="38.7" fill="#ffffff" opacity="0.30"/><circle cx="669.1" cy="493.9" r="117.4" fill="#12E6C4" opacity="0.10"/><circle cx="669.1" cy="493.9" r="25.8" fill="#ffffff" opacity="0.30"/><rect x="26" y="26" width="1148" height="548" rx="26" fill="none" stroke="#E4B24C" stroke-width="4"/><text x="600" y="250" text-anchor="middle" font-family="Georgia, serif" font-size="104" font-weight="700" fill="#F6ECD6" letter-spacing="6">WARHOOK</text><line x1="330" y1="292" x2="870" y2="292" stroke="#E4B24C" stroke-width="4" stroke-linecap="round"/><path d="M870 292 L870 320 A26 26 0 1 1 844 346" fill="none" stroke="#E4B24C" stroke-width="6" stroke-linecap="round"/><circle cx="844" cy="346" r="11" fill="#E23B47"/><text x="600" y="356" text-anchor="middle" font-family="Georgia, serif" font-size="40" fill="#E4B24C" letter-spacing="14">LEO  CROC</text><text x="600" y="440" text-anchor="middle" font-family="Georgia, serif" font-size="30" fill="#9fb2c4" letter-spacing="8">ART  ·  SEA  ·  PLANET</text><text x="600" y="510" text-anchor="middle" font-family="sans-serif" font-size="24" fill="#12E6C4" letter-spacing="4">SAVE THE SEA</text></svg>