<svg xmlns="http://www.w3.org/2000/svg" width="1200" height="630" viewBox="0 0 1200 630"><defs><linearGradient id="g" x1="0" y1="0" x2="0" y2="1"><stop offset="0.55" stop-color="#0a0e17" stop-opacity="0"/><stop offset="1" stop-color="#0a0e17" stop-opacity="0.85"/></linearGradient></defs><rect width="1200" height="630" fill="#0a0e17"/><path d="M1198.0 556.5 L1118.6 575.2 L1120.4 568.6 L1301.8 601.5 L1386.0 574.7 L1361.4 534.6" fill="none" stroke="#A56BFF" stroke-width="1.5" opacity="0.28"/><path d="M141.1 429.5 L273.2 376.2 L148.5 385.0 L216.8 295.5 L106.2 276.2 L177.0 361.6" fill="none" stroke="#38E08A" stroke-width="1.5" opacity="0.28"/><path d="M282.6 260.8 L113.9 288.5 L269.1 417.8 L456.5 449.8 L453.6 462.0 L628.8 411.1" fill="none" stroke="#A56BFF" stroke-width="1.5" opacity="0.28"/><path d="M510.9 332.8 L537.2 329.7 L359.1 317.3 L438.3 360.5 L502.9 278.6 L418.0 381.2" fill="none" stroke="#FF6B4A" stroke-width="1.5" opacity="0.28"/><path d="M744.9 33.3 L876.4 96.6 L1065.0 213.3 L910.1 145.8 L1088.6 213.8 L1087.1 240.6" fill="none" stroke="#38E08A" stroke-width="1.5" opacity="0.28"/><path d="M379.3 506.4 L334.0 501.4 L290.4 628.1 L123.3 640.7 L238.5 706.0 L153.4 833.5" fill="none" stroke="#FF6B4A" stroke-width="1.5" opacity="0.28"/><circle cx="1058.7" cy="286.2" r="333.0" fill="#FF6B4A" opacity="0.09"/><circle cx="1058.7" cy="286.2" r="166.5" fill="#FF6B4A" opacity="0.20"/><circle cx="1058.7" cy="286.2" r="46.6" fill="#ffffff" opacity="0.82"/><circle cx="400.1" cy="597.3" r="182.9" fill="#38E08A" opacity="0.09"/><circle cx="400.1" cy="597.3" r="91.4" fill="#38E08A" opacity="0.20"/><circle cx="400.1" cy="597.3" r="25.6" fill="#ffffff" opacity="0.82"/><circle cx="795.0" cy="621.3" r="235.2" fill="#A56BFF" opacity="0.09"/><circle cx="795.0" cy="621.3" r="117.6" fill="#A56BFF" opacity="0.20"/><circle cx="795.0" cy="621.3" r="32.9" fill="#ffffff" opacity="0.82"/><circle cx="772.6" cy="460.9" r="71.8" fill="#38E08A" opacity="0.09"/><circle cx="772.6" cy="460.9" r="35.9" fill="#38E08A" opacity="0.20"/><circle cx="772.6" cy="460.9" r="10.1" fill="#ffffff" opacity="0.82"/><circle cx="1178.3" cy="575.1" r="114.7" fill="#A56BFF" opacity="0.09"/><circle cx="1178.3" cy="575.1" r="57.4" fill="#A56BFF" opacity="0.20"/><circle cx="1178.3" cy="575.1" r="16.1" fill="#ffffff" opacity="0.82"/><circle cx="127.8" cy="75.6" r="215.0" fill="#A56BFF" opacity="0.09"/><circle cx="127.8" cy="75.6" r="107.5" fill="#A56BFF" opacity="0.20"/><circle cx="127.8" cy="75.6" r="30.1" fill="#ffffff" opacity="0.82"/><circle cx="1084.1" cy="378.0" r="186.2" fill="#38E08A" opacity="0.09"/><circle cx="1084.1" cy="378.0" r="93.1" fill="#38E08A" opacity="0.20"/><circle cx="1084.1" cy="378.0" r="26.1" fill="#ffffff" opacity="0.82"/><circle cx="768.5" cy="317.7" r="326.7" fill="#FF6B4A" opacity="0.09"/><circle cx="768.5" cy="317.7" r="163.3" fill="#FF6B4A" opacity="0.20"/><circle cx="768.5" cy="317.7" r="45.7" fill="#ffffff" opacity="0.82"/><circle cx="295.5" cy="423.5" r="132.6" fill="#FF6B4A" opacity="0.09"/><circle cx="295.5" cy="423.5" r="66.3" fill="#FF6B4A" opacity="0.20"/><circle cx="295.5" cy="423.5" r="18.6" fill="#ffffff" opacity="0.82"/><circle cx="869.7" cy="615.3" r="57.3" fill="#A56BFF" opacity="0.09"/><circle cx="869.7" cy="615.3" r="28.7" fill="#A56BFF" opacity="0.20"/><circle cx="869.7" cy="615.3" r="8.0" fill="#ffffff" opacity="0.82"/><circle cx="100.0" cy="555.2" r="262.2" fill="#FF6B4A" opacity="0.09"/><circle cx="100.0" cy="555.2" r="131.1" fill="#FF6B4A" opacity="0.20"/><circle cx="100.0" cy="555.2" r="36.7" fill="#ffffff" opacity="0.82"/><circle cx="518.1" cy="68.4" r="106.4" fill="#38E08A" opacity="0.09"/><circle cx="518.1" cy="68.4" r="53.2" fill="#38E08A" opacity="0.20"/><circle cx="518.1" cy="68.4" r="14.9" fill="#ffffff" opacity="0.82"/><circle cx="281.3" cy="428.9" r="234.2" fill="#FF6B4A" opacity="0.09"/><circle cx="281.3" cy="428.9" r="117.1" fill="#FF6B4A" opacity="0.20"/><circle cx="281.3" cy="428.9" r="32.8" fill="#ffffff" opacity="0.82"/><circle cx="712.3" cy="288.8" r="176.6" fill="#FF6B4A" opacity="0.09"/><circle cx="712.3" cy="288.8" r="88.3" fill="#FF6B4A" opacity="0.20"/><circle cx="712.3" cy="288.8" r="24.7" fill="#ffffff" opacity="0.82"/><circle cx="988.3" cy="480.8" r="254.4" fill="#38E08A" opacity="0.09"/><circle cx="988.3" cy="480.8" r="127.2" fill="#38E08A" opacity="0.20"/><circle cx="988.3" cy="480.8" r="35.6" fill="#ffffff" opacity="0.82"/><circle cx="207.8" cy="174.3" r="61.6" fill="#FF6B4A" opacity="0.09"/><circle cx="207.8" cy="174.3" r="30.8" fill="#FF6B4A" opacity="0.20"/><circle cx="207.8" cy="174.3" r="8.6" fill="#ffffff" opacity="0.82"/><circle cx="147.7" cy="166.5" r="225.1" fill="#FF6B4A" opacity="0.09"/><circle cx="147.7" cy="166.5" r="112.6" fill="#FF6B4A" opacity="0.20"/><circle cx="147.7" cy="166.5" r="31.5" fill="#ffffff" opacity="0.82"/><circle cx="162.6" cy="549.4" r="77.4" fill="#FF6B4A" opacity="0.09"/><circle cx="162.6" cy="549.4" r="38.7" fill="#FF6B4A" opacity="0.20"/><circle cx="162.6" cy="549.4" r="10.8" fill="#ffffff" opacity="0.82"/><circle cx="272.9" cy="20.3" r="83.2" fill="#FF6B4A" opacity="0.09"/><circle cx="272.9" cy="20.3" r="41.6" fill="#FF6B4A" opacity="0.20"/><circle cx="272.9" cy="20.3" r="11.6" fill="#ffffff" opacity="0.82"/><circle cx="121.7" cy="203.5" r="347.5" fill="#A56BFF" opacity="0.09"/><circle cx="121.7" cy="203.5" r="173.8" fill="#A56BFF" opacity="0.20"/><circle cx="121.7" cy="203.5" r="48.7" fill="#ffffff" opacity="0.82"/><circle cx="370.1" cy="160.2" r="100.4" fill="#FF6B4A" opacity="0.09"/><circle cx="370.1" cy="160.2" r="50.2" fill="#FF6B4A" opacity="0.20"/><circle cx="370.1" cy="160.2" r="14.1" fill="#ffffff" opacity="0.82"/><circle cx="1118.0" cy="607.2" r="330.4" fill="#FF6B4A" opacity="0.09"/><circle cx="1118.0" cy="607.2" r="165.2" fill="#FF6B4A" opacity="0.20"/><circle cx="1118.0" cy="607.2" r="46.3" fill="#ffffff" opacity="0.82"/><circle cx="342.7" cy="72.5" r="135.0" fill="#38E08A" opacity="0.09"/><circle cx="342.7" cy="72.5" r="67.5" fill="#38E08A" opacity="0.20"/><circle cx="342.7" cy="72.5" r="18.9" fill="#ffffff" opacity="0.82"/><circle cx="1170.0" cy="625.4" r="319.6" fill="#FF6B4A" opacity="0.09"/><circle cx="1170.0" cy="625.4" r="159.8" fill="#FF6B4A" opacity="0.20"/><circle cx="1170.0" cy="625.4" r="44.7" fill="#ffffff" opacity="0.82"/><circle cx="1033.1" cy="530.1" r="343.4" fill="#FF6B4A" opacity="0.09"/><circle cx="1033.1" cy="530.1" r="171.7" fill="#FF6B4A" opacity="0.20"/><circle cx="1033.1" cy="530.1" r="48.1" fill="#ffffff" opacity="0.82"/><circle cx="275.6" cy="517.3" r="336.8" fill="#A56BFF" opacity="0.09"/><circle cx="275.6" cy="517.3" r="168.4" fill="#A56BFF" opacity="0.20"/><circle cx="275.6" cy="517.3" r="47.2" fill="#ffffff" opacity="0.82"/><circle cx="897.2" cy="281.1" r="242.8" fill="#A56BFF" opacity="0.09"/><circle cx="897.2" cy="281.1" r="121.4" fill="#A56BFF" opacity="0.20"/><circle cx="897.2" cy="281.1" r="34.0" fill="#ffffff" opacity="0.82"/><circle cx="958.8" cy="348.4" r="247.5" fill="#A56BFF" opacity="0.09"/><circle cx="958.8" cy="348.4" r="123.7" fill="#A56BFF" opacity="0.20"/><circle cx="958.8" cy="348.4" r="34.6" fill="#ffffff" opacity="0.82"/><circle cx="992.1" cy="396.9" r="197.8" fill="#A56BFF" opacity="0.09"/><circle cx="992.1" cy="396.9" r="98.9" fill="#A56BFF" opacity="0.20"/><circle cx="992.1" cy="396.9" r="27.7" fill="#ffffff" opacity="0.82"/><circle cx="32.2" cy="547.4" r="115.5" fill="#A56BFF" opacity="0.09"/><circle cx="32.2" cy="547.4" r="57.8" fill="#A56BFF" opacity="0.20"/><circle cx="32.2" cy="547.4" r="16.2" fill="#ffffff" opacity="0.82"/><circle cx="140.3" cy="242.2" r="209.6" fill="#FF6B4A" opacity="0.09"/><circle cx="140.3" cy="242.2" r="104.8" fill="#FF6B4A" opacity="0.20"/><circle cx="140.3" cy="242.2" r="29.4" fill="#ffffff" opacity="0.82"/><circle cx="91.2" cy="478.3" r="73.0" fill="#A56BFF" opacity="0.09"/><circle cx="91.2" cy="478.3" r="36.5" fill="#A56BFF" opacity="0.20"/><circle cx="91.2" cy="478.3" r="10.2" fill="#ffffff" opacity="0.82"/><circle cx="54.7" cy="443.8" r="305.1" fill="#FF6B4A" opacity="0.09"/><circle cx="54.7" cy="443.8" r="152.5" fill="#FF6B4A" opacity="0.20"/><circle cx="54.7" cy="443.8" r="42.7" fill="#ffffff" opacity="0.82"/><circle cx="5.5" cy="173.6" r="99.5" fill="#38E08A" opacity="0.09"/><circle cx="5.5" cy="173.6" r="49.8" fill="#38E08A" opacity="0.20"/><circle cx="5.5" cy="173.6" r="13.9" fill="#ffffff" opacity="0.82"/><circle cx="501.6" cy="302.6" r="269.5" fill="#FF6B4A" opacity="0.09"/><circle cx="501.6" cy="302.6" r="134.7" fill="#FF6B4A" opacity="0.20"/><circle cx="501.6" cy="302.6" r="37.7" fill="#ffffff" opacity="0.82"/><circle cx="452.0" cy="91.7" r="192.8" fill="#FF6B4A" opacity="0.09"/><circle cx="452.0" cy="91.7" r="96.4" fill="#FF6B4A" opacity="0.20"/><circle cx="452.0" cy="91.7" r="27.0" fill="#ffffff" opacity="0.82"/><circle cx="1118.7" cy="624.2" r="185.8" fill="#FF6B4A" opacity="0.09"/><circle cx="1118.7" cy="624.2" r="92.9" fill="#FF6B4A" opacity="0.20"/><circle cx="1118.7" cy="624.2" r="26.0" fill="#ffffff" opacity="0.82"/><rect width="1200" height="630" fill="url(#g)"/><text x="1170" y="604" text-anchor="end" font-family="sans-serif" font-size="26" fill="#E4B24C" opacity="0.92">WARHOOK LEO CROC</text></svg>