<svg xmlns="http://www.w3.org/2000/svg" width="1200" height="630" viewBox="0 0 1200 630"><defs><linearGradient id="g" x1="0" y1="0" x2="0" y2="1"><stop offset="0.55" stop-color="#0a0e17" stop-opacity="0"/><stop offset="1" stop-color="#0a0e17" stop-opacity="0.85"/></linearGradient></defs><rect width="1200" height="630" fill="#0a0e17"/><path d="M672.1 542.6 L603.7 546.8 L414.3 451.7 L389.3 458.5 L210.8 537.4 L139.1 595.5" fill="none" stroke="#FF3EA5" stroke-width="1.5" opacity="0.28"/><path d="M98.1 127.8 L100.3 2.0 L265.0 -68.7 L168.8 -136.7 L80.6 -108.6 L15.4 -82.6" fill="none" stroke="#FF3EA5" stroke-width="1.5" opacity="0.28"/><path d="M956.0 443.5 L1099.4 350.1 L970.5 293.8 L1004.2 223.5 L1031.2 190.9 L1046.2 195.9" fill="none" stroke="#FF3EA5" stroke-width="1.5" opacity="0.28"/><path d="M388.2 55.0 L515.3 145.0 L382.5 271.3 L548.2 237.5 L441.2 185.3 L596.5 166.6" fill="none" stroke="#00E5FF" stroke-width="1.5" opacity="0.28"/><path d="M136.2 118.1 L285.2 -2.9 L378.9 -99.6 L294.6 -55.3 L364.9 -158.7 L432.2 -198.7" fill="none" stroke="#00E5FF" stroke-width="1.5" opacity="0.28"/><path d="M525.6 274.0 L487.8 261.9 L545.3 381.0 L659.9 363.2 L633.6 325.9 L756.9 276.2" fill="none" stroke="#00E5FF" stroke-width="1.5" opacity="0.28"/><path d="M259.1 600.0 L223.8 560.3 L339.3 659.0 L362.6 756.4 L349.5 748.5 L210.7 843.9" fill="none" stroke="#FFB020" stroke-width="1.5" opacity="0.28"/><path d="M998.5 172.8 L1046.8 57.7 L1071.5 59.9 L920.6 65.1 L932.3 15.7 L1108.2 -91.3" fill="none" stroke="#00E5FF" stroke-width="1.5" opacity="0.28"/><path d="M851.4 421.2 L734.9 546.6 L588.1 553.7 L473.6 607.0 L356.4 594.3 L314.0 584.3" fill="none" stroke="#FF3EA5" stroke-width="1.5" opacity="0.28"/><path d="M303.7 608.8 L176.1 658.1 L165.7 779.3 L29.9 835.6 L118.9 782.3 L-20.8 721.2" fill="none" stroke="#FFB020" stroke-width="1.5" opacity="0.28"/><path d="M212.5 359.5 L286.6 407.8 L182.8 511.3 L59.3 437.3 L26.9 508.5 L165.3 397.9" fill="none" stroke="#00E5FF" stroke-width="1.5" opacity="0.28"/><circle cx="275.9" cy="161.1" r="133.3" fill="#FF3EA5" opacity="0.09"/><circle cx="275.9" cy="161.1" r="66.6" fill="#FF3EA5" opacity="0.20"/><circle cx="275.9" cy="161.1" r="18.7" fill="#ffffff" opacity="0.82"/><circle cx="1139.7" cy="446.0" r="63.7" fill="#00E5FF" opacity="0.09"/><circle cx="1139.7" cy="446.0" r="31.8" fill="#00E5FF" opacity="0.20"/><circle cx="1139.7" cy="446.0" r="8.9" fill="#ffffff" opacity="0.82"/><circle cx="779.3" cy="336.7" r="222.1" fill="#00E5FF" opacity="0.09"/><circle cx="779.3" cy="336.7" r="111.0" fill="#00E5FF" opacity="0.20"/><circle cx="779.3" cy="336.7" r="31.1" fill="#ffffff" opacity="0.82"/><circle cx="681.4" cy="57.7" r="216.4" fill="#00E5FF" opacity="0.09"/><circle cx="681.4" cy="57.7" r="108.2" fill="#00E5FF" opacity="0.20"/><circle cx="681.4" cy="57.7" r="30.3" fill="#ffffff" opacity="0.82"/><circle cx="137.5" cy="105.3" r="89.3" fill="#00E5FF" opacity="0.09"/><circle cx="137.5" cy="105.3" r="44.7" fill="#00E5FF" opacity="0.20"/><circle cx="137.5" cy="105.3" r="12.5" fill="#ffffff" opacity="0.82"/><circle cx="334.9" cy="265.6" r="179.6" fill="#FF3EA5" opacity="0.09"/><circle cx="334.9" cy="265.6" r="89.8" fill="#FF3EA5" opacity="0.20"/><circle cx="334.9" cy="265.6" r="25.1" fill="#ffffff" opacity="0.82"/><circle cx="85.6" cy="442.2" r="71.0" fill="#FF3EA5" opacity="0.09"/><circle cx="85.6" cy="442.2" r="35.5" fill="#FF3EA5" opacity="0.20"/><circle cx="85.6" cy="442.2" r="9.9" fill="#ffffff" opacity="0.82"/><circle cx="878.7" cy="194.7" r="63.9" fill="#FF3EA5" opacity="0.09"/><circle cx="878.7" cy="194.7" r="31.9" fill="#FF3EA5" opacity="0.20"/><circle cx="878.7" cy="194.7" r="8.9" fill="#ffffff" opacity="0.82"/><circle cx="177.8" cy="597.4" r="292.0" fill="#FF3EA5" opacity="0.09"/><circle cx="177.8" cy="597.4" r="146.0" fill="#FF3EA5" opacity="0.20"/><circle cx="177.8" cy="597.4" r="40.9" fill="#ffffff" opacity="0.82"/><circle cx="701.8" cy="337.2" r="337.6" fill="#FFB020" opacity="0.09"/><circle cx="701.8" cy="337.2" r="168.8" fill="#FFB020" opacity="0.20"/><circle cx="701.8" cy="337.2" r="47.3" fill="#ffffff" opacity="0.82"/><circle cx="350.1" cy="132.2" r="341.3" fill="#00E5FF" opacity="0.09"/><circle cx="350.1" cy="132.2" r="170.7" fill="#00E5FF" opacity="0.20"/><circle cx="350.1" cy="132.2" r="47.8" fill="#ffffff" opacity="0.82"/><circle cx="121.0" cy="326.4" r="246.6" fill="#00E5FF" opacity="0.09"/><circle cx="121.0" cy="326.4" r="123.3" fill="#00E5FF" opacity="0.20"/><circle cx="121.0" cy="326.4" r="34.5" fill="#ffffff" opacity="0.82"/><circle cx="613.4" cy="262.3" r="189.6" fill="#FFB020" opacity="0.09"/><circle cx="613.4" cy="262.3" r="94.8" fill="#FFB020" opacity="0.20"/><circle cx="613.4" cy="262.3" r="26.5" fill="#ffffff" opacity="0.82"/><circle cx="450.8" cy="260.4" r="307.3" fill="#00E5FF" opacity="0.09"/><circle cx="450.8" cy="260.4" r="153.7" fill="#00E5FF" opacity="0.20"/><circle cx="450.8" cy="260.4" r="43.0" fill="#ffffff" opacity="0.82"/><circle cx="578.3" cy="160.0" r="244.5" fill="#FF3EA5" opacity="0.09"/><circle cx="578.3" cy="160.0" r="122.2" fill="#FF3EA5" opacity="0.20"/><circle cx="578.3" cy="160.0" r="34.2" fill="#ffffff" opacity="0.82"/><circle cx="884.6" cy="90.0" r="281.0" fill="#FFB020" opacity="0.09"/><circle cx="884.6" cy="90.0" r="140.5" fill="#FFB020" opacity="0.20"/><circle cx="884.6" cy="90.0" r="39.3" fill="#ffffff" opacity="0.82"/><circle cx="1077.3" cy="293.7" r="281.3" fill="#00E5FF" opacity="0.09"/><circle cx="1077.3" cy="293.7" r="140.7" fill="#00E5FF" opacity="0.20"/><circle cx="1077.3" cy="293.7" r="39.4" fill="#ffffff" opacity="0.82"/><circle cx="267.5" cy="531.2" r="110.7" fill="#FF3EA5" opacity="0.09"/><circle cx="267.5" cy="531.2" r="55.3" fill="#FF3EA5" opacity="0.20"/><circle cx="267.5" cy="531.2" r="15.5" fill="#ffffff" opacity="0.82"/><circle cx="1055.1" cy="468.2" r="130.5" fill="#FFB020" opacity="0.09"/><circle cx="1055.1" cy="468.2" r="65.3" fill="#FFB020" opacity="0.20"/><circle cx="1055.1" cy="468.2" r="18.3" fill="#ffffff" opacity="0.82"/><circle cx="511.9" cy="18.2" r="183.2" fill="#FFB020" opacity="0.09"/><circle cx="511.9" cy="18.2" r="91.6" fill="#FFB020" opacity="0.20"/><circle cx="511.9" cy="18.2" r="25.6" fill="#ffffff" opacity="0.82"/><circle cx="747.3" cy="326.3" r="101.9" fill="#FFB020" opacity="0.09"/><circle cx="747.3" cy="326.3" r="51.0" fill="#FFB020" opacity="0.20"/><circle cx="747.3" cy="326.3" r="14.3" fill="#ffffff" opacity="0.82"/><circle cx="489.6" cy="69.8" r="48.5" fill="#00E5FF" opacity="0.09"/><circle cx="489.6" cy="69.8" r="24.3" fill="#00E5FF" opacity="0.20"/><circle cx="489.6" cy="69.8" r="6.8" fill="#ffffff" opacity="0.82"/><circle cx="1185.8" cy="103.2" r="328.7" fill="#FFB020" opacity="0.09"/><circle cx="1185.8" cy="103.2" r="164.4" fill="#FFB020" opacity="0.20"/><circle cx="1185.8" cy="103.2" r="46.0" fill="#ffffff" opacity="0.82"/><circle cx="307.4" cy="214.2" r="127.4" fill="#00E5FF" opacity="0.09"/><circle cx="307.4" cy="214.2" r="63.7" fill="#00E5FF" opacity="0.20"/><circle cx="307.4" cy="214.2" r="17.8" fill="#ffffff" opacity="0.82"/><circle cx="798.6" cy="16.1" r="102.4" fill="#FFB020" opacity="0.09"/><circle cx="798.6" cy="16.1" r="51.2" fill="#FFB020" opacity="0.20"/><circle cx="798.6" cy="16.1" r="14.3" fill="#ffffff" opacity="0.82"/><circle cx="634.7" cy="367.9" r="73.1" fill="#FFB020" opacity="0.09"/><circle cx="634.7" cy="367.9" r="36.6" fill="#FFB020" opacity="0.20"/><circle cx="634.7" cy="367.9" r="10.2" fill="#ffffff" opacity="0.82"/><circle cx="242.3" cy="294.1" r="260.0" fill="#FFB020" opacity="0.09"/><circle cx="242.3" cy="294.1" r="130.0" fill="#FFB020" opacity="0.20"/><circle cx="242.3" cy="294.1" r="36.4" fill="#ffffff" opacity="0.82"/><circle cx="28.1" cy="382.0" r="325.3" fill="#00E5FF" opacity="0.09"/><circle cx="28.1" cy="382.0" r="162.7" fill="#00E5FF" opacity="0.20"/><circle cx="28.1" cy="382.0" r="45.5" fill="#ffffff" opacity="0.82"/><circle cx="155.7" cy="277.0" r="253.5" fill="#FF3EA5" opacity="0.09"/><circle cx="155.7" cy="277.0" r="126.8" fill="#FF3EA5" opacity="0.20"/><circle cx="155.7" cy="277.0" r="35.5" fill="#ffffff" opacity="0.82"/><circle cx="1092.0" cy="15.9" r="72.8" fill="#FFB020" opacity="0.09"/><circle cx="1092.0" cy="15.9" r="36.4" fill="#FFB020" opacity="0.20"/><circle cx="1092.0" cy="15.9" r="10.2" fill="#ffffff" opacity="0.82"/><circle cx="195.9" cy="450.9" r="302.8" fill="#FF3EA5" opacity="0.09"/><circle cx="195.9" cy="450.9" r="151.4" fill="#FF3EA5" opacity="0.20"/><circle cx="195.9" cy="450.9" r="42.4" fill="#ffffff" opacity="0.82"/><circle cx="683.6" cy="80.7" r="135.2" fill="#00E5FF" opacity="0.09"/><circle cx="683.6" cy="80.7" r="67.6" fill="#00E5FF" opacity="0.20"/><circle cx="683.6" cy="80.7" r="18.9" fill="#ffffff" opacity="0.82"/><circle cx="1100.8" cy="604.3" r="130.1" fill="#FF3EA5" opacity="0.09"/><circle cx="1100.8" cy="604.3" r="65.1" fill="#FF3EA5" opacity="0.20"/><circle cx="1100.8" cy="604.3" r="18.2" fill="#ffffff" opacity="0.82"/><circle cx="227.8" cy="184.8" r="334.3" fill="#00E5FF" opacity="0.09"/><circle cx="227.8" cy="184.8" r="167.2" fill="#00E5FF" opacity="0.20"/><circle cx="227.8" cy="184.8" r="46.8" fill="#ffffff" opacity="0.82"/><circle cx="1041.7" cy="134.4" r="119.2" fill="#FFB020" opacity="0.09"/><circle cx="1041.7" cy="134.4" r="59.6" fill="#FFB020" opacity="0.20"/><circle cx="1041.7" cy="134.4" r="16.7" fill="#ffffff" opacity="0.82"/><circle cx="782.5" cy="367.3" r="220.5" fill="#00E5FF" opacity="0.09"/><circle cx="782.5" cy="367.3" r="110.2" fill="#00E5FF" opacity="0.20"/><circle cx="782.5" cy="367.3" r="30.9" fill="#ffffff" opacity="0.82"/><circle cx="598.0" cy="367.2" r="66.4" fill="#FF3EA5" opacity="0.09"/><circle cx="598.0" cy="367.2" r="33.2" fill="#FF3EA5" opacity="0.20"/><circle cx="598.0" cy="367.2" r="9.3" fill="#ffffff" opacity="0.82"/><circle cx="493.6" cy="614.4" r="52.3" fill="#FFB020" opacity="0.09"/><circle cx="493.6" cy="614.4" r="26.2" fill="#FFB020" opacity="0.20"/><circle cx="493.6" cy="614.4" r="7.3" fill="#ffffff" opacity="0.82"/><circle cx="1164.9" cy="168.2" r="295.3" fill="#FFB020" opacity="0.09"/><circle cx="1164.9" cy="168.2" r="147.6" fill="#FFB020" opacity="0.20"/><circle cx="1164.9" cy="168.2" r="41.3" fill="#ffffff" opacity="0.82"/><circle cx="675.4" cy="199.8" r="315.7" fill="#FF3EA5" opacity="0.09"/><circle cx="675.4" cy="199.8" r="157.8" fill="#FF3EA5" opacity="0.20"/><circle cx="675.4" cy="199.8" r="44.2" fill="#ffffff" opacity="0.82"/><circle cx="808.6" cy="543.4" r="163.7" fill="#00E5FF" opacity="0.09"/><circle cx="808.6" cy="543.4" r="81.8" fill="#00E5FF" opacity="0.20"/><circle cx="808.6" cy="543.4" r="22.9" fill="#ffffff" opacity="0.82"/><circle cx="254.4" cy="168.6" r="75.5" fill="#FFB020" opacity="0.09"/><circle cx="254.4" cy="168.6" r="37.7" fill="#FFB020" opacity="0.20"/><circle cx="254.4" cy="168.6" r="10.6" fill="#ffffff" opacity="0.82"/><circle cx="453.5" cy="112.6" r="210.0" fill="#00E5FF" opacity="0.09"/><circle cx="453.5" cy="112.6" r="105.0" fill="#00E5FF" opacity="0.20"/><circle cx="453.5" cy="112.6" r="29.4" fill="#ffffff" opacity="0.82"/><circle cx="154.6" cy="402.8" r="309.1" fill="#FFB020" opacity="0.09"/><circle cx="154.6" cy="402.8" r="154.5" fill="#FFB020" opacity="0.20"/><circle cx="154.6" cy="402.8" r="43.3" fill="#ffffff" opacity="0.82"/><circle cx="132.0" cy="239.8" r="97.6" fill="#FFB020" opacity="0.09"/><circle cx="132.0" cy="239.8" r="48.8" fill="#FFB020" opacity="0.20"/><circle cx="132.0" cy="239.8" r="13.7" fill="#ffffff" opacity="0.82"/><circle cx="677.1" cy="98.2" r="135.2" fill="#FFB020" opacity="0.09"/><circle cx="677.1" cy="98.2" r="67.6" fill="#FFB020" opacity="0.20"/><circle cx="677.1" cy="98.2" r="18.9" fill="#ffffff" opacity="0.82"/><rect width="1200" height="630" fill="url(#g)"/><text x="1170" y="604" text-anchor="end" font-family="sans-serif" font-size="26" fill="#E4B24C" opacity="0.92">WARHOOK LEO CROC</text></svg>