<svg xmlns="http://www.w3.org/2000/svg" width="1200" height="630" viewBox="0 0 1200 630"><defs><linearGradient id="g" x1="0" y1="0" x2="0" y2="1"><stop offset="0.55" stop-color="#0a0e17" stop-opacity="0"/><stop offset="1" stop-color="#0a0e17" stop-opacity="0.85"/></linearGradient></defs><rect width="1200" height="630" fill="#0a0e17"/><path d="M415.4 628.0 L420.8 726.6 L542.0 848.1 L413.8 854.9 L352.9 759.6 L473.0 740.0" fill="none" stroke="#00E5FF" stroke-width="1.5" opacity="0.28"/><path d="M601.3 519.0 L672.8 504.4 L606.0 386.9 L721.6 424.4 L591.9 440.8 L488.1 350.5" fill="none" stroke="#A56BFF" stroke-width="1.5" opacity="0.28"/><path d="M229.4 442.0 L163.5 407.7 L212.2 458.2 L176.3 381.9 L332.8 387.2 L162.6 300.6" fill="none" stroke="#38E08A" stroke-width="1.5" opacity="0.28"/><path d="M823.1 238.6 L740.1 183.6 L576.5 131.6 L596.7 177.7 L501.4 218.1 L400.1 98.3" fill="none" stroke="#A56BFF" stroke-width="1.5" opacity="0.28"/><path d="M689.3 84.5 L868.1 108.1 L704.5 148.9 L650.2 124.9 L642.6 43.4 L722.0 -55.4" fill="none" stroke="#38E08A" stroke-width="1.5" opacity="0.28"/><path d="M764.0 70.1 L926.1 -27.2 L1008.5 -16.3 L917.4 -83.8 L836.9 -96.7 L1023.6 -132.1" fill="none" stroke="#A56BFF" stroke-width="1.5" opacity="0.28"/><path d="M1099.6 513.5 L1132.5 434.5 L1251.4 486.1 L1411.3 574.5 L1290.2 695.8 L1354.8 647.3" fill="none" stroke="#38E08A" stroke-width="1.5" opacity="0.28"/><path d="M1058.0 610.8 L1147.0 664.1 L964.7 631.9 L850.1 666.5 L793.0 669.3 L648.8 687.5" fill="none" stroke="#00E5FF" stroke-width="1.5" opacity="0.28"/><path d="M459.6 477.8 L354.7 465.4 L364.1 342.2 L536.2 415.7 L396.2 460.8 L391.2 420.5" fill="none" stroke="#A56BFF" stroke-width="1.5" opacity="0.28"/><circle cx="705.0" cy="558.6" r="269.1" fill="#38E08A" opacity="0.09"/><circle cx="705.0" cy="558.6" r="134.5" fill="#38E08A" opacity="0.20"/><circle cx="705.0" cy="558.6" r="37.7" fill="#ffffff" opacity="0.82"/><circle cx="671.9" cy="611.1" r="91.1" fill="#00E5FF" opacity="0.09"/><circle cx="671.9" cy="611.1" r="45.5" fill="#00E5FF" opacity="0.20"/><circle cx="671.9" cy="611.1" r="12.7" fill="#ffffff" opacity="0.82"/><circle cx="35.3" cy="225.7" r="55.0" fill="#38E08A" opacity="0.09"/><circle cx="35.3" cy="225.7" r="27.5" fill="#38E08A" opacity="0.20"/><circle cx="35.3" cy="225.7" r="7.7" fill="#ffffff" opacity="0.82"/><circle cx="1167.1" cy="324.0" r="195.0" fill="#00E5FF" opacity="0.09"/><circle cx="1167.1" cy="324.0" r="97.5" fill="#00E5FF" opacity="0.20"/><circle cx="1167.1" cy="324.0" r="27.3" fill="#ffffff" opacity="0.82"/><circle cx="591.1" cy="475.0" r="347.3" fill="#00E5FF" opacity="0.09"/><circle cx="591.1" cy="475.0" r="173.6" fill="#00E5FF" opacity="0.20"/><circle cx="591.1" cy="475.0" r="48.6" fill="#ffffff" opacity="0.82"/><circle cx="760.1" cy="557.1" r="247.3" fill="#00E5FF" opacity="0.09"/><circle cx="760.1" cy="557.1" r="123.6" fill="#00E5FF" opacity="0.20"/><circle cx="760.1" cy="557.1" r="34.6" fill="#ffffff" opacity="0.82"/><circle cx="227.9" cy="136.3" r="107.2" fill="#A56BFF" opacity="0.09"/><circle cx="227.9" cy="136.3" r="53.6" fill="#A56BFF" opacity="0.20"/><circle cx="227.9" cy="136.3" r="15.0" fill="#ffffff" opacity="0.82"/><circle cx="71.7" cy="121.3" r="55.7" fill="#A56BFF" opacity="0.09"/><circle cx="71.7" cy="121.3" r="27.9" fill="#A56BFF" opacity="0.20"/><circle cx="71.7" cy="121.3" r="7.8" fill="#ffffff" opacity="0.82"/><circle cx="890.1" cy="470.6" r="284.9" fill="#A56BFF" opacity="0.09"/><circle cx="890.1" cy="470.6" r="142.4" fill="#A56BFF" opacity="0.20"/><circle cx="890.1" cy="470.6" r="39.9" fill="#ffffff" opacity="0.82"/><circle cx="904.5" cy="317.0" r="68.1" fill="#A56BFF" opacity="0.09"/><circle cx="904.5" cy="317.0" r="34.0" fill="#A56BFF" opacity="0.20"/><circle cx="904.5" cy="317.0" r="9.5" fill="#ffffff" opacity="0.82"/><circle cx="724.0" cy="19.9" r="347.4" fill="#00E5FF" opacity="0.09"/><circle cx="724.0" cy="19.9" r="173.7" fill="#00E5FF" opacity="0.20"/><circle cx="724.0" cy="19.9" r="48.6" fill="#ffffff" opacity="0.82"/><circle cx="1128.7" cy="156.7" r="151.9" fill="#38E08A" opacity="0.09"/><circle cx="1128.7" cy="156.7" r="76.0" fill="#38E08A" opacity="0.20"/><circle cx="1128.7" cy="156.7" r="21.3" fill="#ffffff" opacity="0.82"/><circle cx="573.2" cy="494.3" r="287.4" fill="#A56BFF" opacity="0.09"/><circle cx="573.2" cy="494.3" r="143.7" fill="#A56BFF" opacity="0.20"/><circle cx="573.2" cy="494.3" r="40.2" fill="#ffffff" opacity="0.82"/><circle cx="972.6" cy="88.0" r="136.7" fill="#A56BFF" opacity="0.09"/><circle cx="972.6" cy="88.0" r="68.3" fill="#A56BFF" opacity="0.20"/><circle cx="972.6" cy="88.0" r="19.1" fill="#ffffff" opacity="0.82"/><circle cx="300.8" cy="399.0" r="173.2" fill="#38E08A" opacity="0.09"/><circle cx="300.8" cy="399.0" r="86.6" fill="#38E08A" opacity="0.20"/><circle cx="300.8" cy="399.0" r="24.2" fill="#ffffff" opacity="0.82"/><circle cx="691.5" cy="431.6" r="97.6" fill="#00E5FF" opacity="0.09"/><circle cx="691.5" cy="431.6" r="48.8" fill="#00E5FF" opacity="0.20"/><circle cx="691.5" cy="431.6" r="13.7" fill="#ffffff" opacity="0.82"/><circle cx="131.7" cy="476.0" r="81.1" fill="#38E08A" opacity="0.09"/><circle cx="131.7" cy="476.0" r="40.6" fill="#38E08A" opacity="0.20"/><circle cx="131.7" cy="476.0" r="11.4" fill="#ffffff" opacity="0.82"/><circle cx="106.2" cy="57.6" r="140.5" fill="#A56BFF" opacity="0.09"/><circle cx="106.2" cy="57.6" r="70.2" fill="#A56BFF" opacity="0.20"/><circle cx="106.2" cy="57.6" r="19.7" fill="#ffffff" opacity="0.82"/><circle cx="41.0" cy="351.1" r="276.1" fill="#00E5FF" opacity="0.09"/><circle cx="41.0" cy="351.1" r="138.1" fill="#00E5FF" opacity="0.20"/><circle cx="41.0" cy="351.1" r="38.7" fill="#ffffff" opacity="0.82"/><circle cx="1020.6" cy="578.9" r="287.2" fill="#A56BFF" opacity="0.09"/><circle cx="1020.6" cy="578.9" r="143.6" fill="#A56BFF" opacity="0.20"/><circle cx="1020.6" cy="578.9" r="40.2" fill="#ffffff" opacity="0.82"/><circle cx="612.8" cy="336.7" r="192.1" fill="#00E5FF" opacity="0.09"/><circle cx="612.8" cy="336.7" r="96.0" fill="#00E5FF" opacity="0.20"/><circle cx="612.8" cy="336.7" r="26.9" fill="#ffffff" opacity="0.82"/><circle cx="108.1" cy="162.6" r="66.0" fill="#38E08A" opacity="0.09"/><circle cx="108.1" cy="162.6" r="33.0" fill="#38E08A" opacity="0.20"/><circle cx="108.1" cy="162.6" r="9.2" fill="#ffffff" opacity="0.82"/><circle cx="1094.6" cy="199.3" r="118.0" fill="#A56BFF" opacity="0.09"/><circle cx="1094.6" cy="199.3" r="59.0" fill="#A56BFF" opacity="0.20"/><circle cx="1094.6" cy="199.3" r="16.5" fill="#ffffff" opacity="0.82"/><circle cx="677.5" cy="503.4" r="209.1" fill="#A56BFF" opacity="0.09"/><circle cx="677.5" cy="503.4" r="104.6" fill="#A56BFF" opacity="0.20"/><circle cx="677.5" cy="503.4" r="29.3" fill="#ffffff" opacity="0.82"/><circle cx="322.3" cy="348.1" r="306.8" fill="#A56BFF" opacity="0.09"/><circle cx="322.3" cy="348.1" r="153.4" fill="#A56BFF" opacity="0.20"/><circle cx="322.3" cy="348.1" r="43.0" fill="#ffffff" opacity="0.82"/><circle cx="994.0" cy="514.2" r="69.6" fill="#38E08A" opacity="0.09"/><circle cx="994.0" cy="514.2" r="34.8" fill="#38E08A" opacity="0.20"/><circle cx="994.0" cy="514.2" r="9.7" fill="#ffffff" opacity="0.82"/><circle cx="44.9" cy="434.2" r="247.2" fill="#00E5FF" opacity="0.09"/><circle cx="44.9" cy="434.2" r="123.6" fill="#00E5FF" opacity="0.20"/><circle cx="44.9" cy="434.2" r="34.6" fill="#ffffff" opacity="0.82"/><circle cx="789.0" cy="408.9" r="66.8" fill="#A56BFF" opacity="0.09"/><circle cx="789.0" cy="408.9" r="33.4" fill="#A56BFF" opacity="0.20"/><circle cx="789.0" cy="408.9" r="9.4" fill="#ffffff" opacity="0.82"/><circle cx="1012.9" cy="177.4" r="198.9" fill="#38E08A" opacity="0.09"/><circle cx="1012.9" cy="177.4" r="99.4" fill="#38E08A" opacity="0.20"/><circle cx="1012.9" cy="177.4" r="27.8" fill="#ffffff" opacity="0.82"/><circle cx="8.0" cy="262.6" r="173.5" fill="#38E08A" opacity="0.09"/><circle cx="8.0" cy="262.6" r="86.7" fill="#38E08A" opacity="0.20"/><circle cx="8.0" cy="262.6" r="24.3" fill="#ffffff" opacity="0.82"/><circle cx="450.1" cy="0.2" r="294.9" fill="#A56BFF" opacity="0.09"/><circle cx="450.1" cy="0.2" r="147.4" fill="#A56BFF" opacity="0.20"/><circle cx="450.1" cy="0.2" r="41.3" fill="#ffffff" opacity="0.82"/><circle cx="32.2" cy="441.9" r="105.3" fill="#00E5FF" opacity="0.09"/><circle cx="32.2" cy="441.9" r="52.7" fill="#00E5FF" opacity="0.20"/><circle cx="32.2" cy="441.9" r="14.7" fill="#ffffff" opacity="0.82"/><circle cx="811.4" cy="115.8" r="255.6" fill="#00E5FF" opacity="0.09"/><circle cx="811.4" cy="115.8" r="127.8" fill="#00E5FF" opacity="0.20"/><circle cx="811.4" cy="115.8" r="35.8" fill="#ffffff" opacity="0.82"/><circle cx="662.9" cy="79.8" r="267.6" fill="#A56BFF" opacity="0.09"/><circle cx="662.9" cy="79.8" r="133.8" fill="#A56BFF" opacity="0.20"/><circle cx="662.9" cy="79.8" r="37.5" fill="#ffffff" opacity="0.82"/><circle cx="898.2" cy="526.2" r="216.5" fill="#A56BFF" opacity="0.09"/><circle cx="898.2" cy="526.2" r="108.2" fill="#A56BFF" opacity="0.20"/><circle cx="898.2" cy="526.2" r="30.3" fill="#ffffff" opacity="0.82"/><circle cx="912.3" cy="221.6" r="199.3" fill="#38E08A" opacity="0.09"/><circle cx="912.3" cy="221.6" r="99.7" fill="#38E08A" opacity="0.20"/><circle cx="912.3" cy="221.6" r="27.9" fill="#ffffff" opacity="0.82"/><circle cx="985.6" cy="612.8" r="221.1" fill="#A56BFF" opacity="0.09"/><circle cx="985.6" cy="612.8" r="110.5" fill="#A56BFF" opacity="0.20"/><circle cx="985.6" cy="612.8" r="31.0" fill="#ffffff" opacity="0.82"/><circle cx="62.4" cy="573.3" r="112.1" fill="#A56BFF" opacity="0.09"/><circle cx="62.4" cy="573.3" r="56.1" fill="#A56BFF" opacity="0.20"/><circle cx="62.4" cy="573.3" r="15.7" fill="#ffffff" opacity="0.82"/><circle cx="1045.6" cy="77.8" r="103.1" fill="#A56BFF" opacity="0.09"/><circle cx="1045.6" cy="77.8" r="51.6" fill="#A56BFF" opacity="0.20"/><circle cx="1045.6" cy="77.8" r="14.4" fill="#ffffff" opacity="0.82"/><circle cx="1008.4" cy="532.7" r="202.2" fill="#00E5FF" opacity="0.09"/><circle cx="1008.4" cy="532.7" r="101.1" fill="#00E5FF" opacity="0.20"/><circle cx="1008.4" cy="532.7" r="28.3" fill="#ffffff" opacity="0.82"/><circle cx="302.3" cy="128.8" r="163.9" fill="#38E08A" opacity="0.09"/><circle cx="302.3" cy="128.8" r="82.0" fill="#38E08A" opacity="0.20"/><circle cx="302.3" cy="128.8" r="23.0" fill="#ffffff" opacity="0.82"/><circle cx="258.5" cy="434.9" r="116.9" fill="#A56BFF" opacity="0.09"/><circle cx="258.5" cy="434.9" r="58.4" fill="#A56BFF" opacity="0.20"/><circle cx="258.5" cy="434.9" r="16.4" fill="#ffffff" opacity="0.82"/><circle cx="806.0" cy="164.5" r="135.5" fill="#A56BFF" opacity="0.09"/><circle cx="806.0" cy="164.5" r="67.8" fill="#A56BFF" opacity="0.20"/><circle cx="806.0" cy="164.5" r="19.0" fill="#ffffff" opacity="0.82"/><circle cx="1177.2" cy="622.6" r="58.9" fill="#38E08A" opacity="0.09"/><circle cx="1177.2" cy="622.6" r="29.5" fill="#38E08A" opacity="0.20"/><circle cx="1177.2" cy="622.6" r="8.2" fill="#ffffff" opacity="0.82"/><circle cx="1047.9" cy="352.0" r="52.8" fill="#38E08A" opacity="0.09"/><circle cx="1047.9" cy="352.0" r="26.4" fill="#38E08A" opacity="0.20"/><circle cx="1047.9" cy="352.0" r="7.4" fill="#ffffff" opacity="0.82"/><rect width="1200" height="630" fill="url(#g)"/><text x="1170" y="604" text-anchor="end" font-family="sans-serif" font-size="26" fill="#E4B24C" opacity="0.92">WARHOOK LEO CROC</text></svg>