<svg xmlns="http://www.w3.org/2000/svg" width="1200" height="630" viewBox="0 0 1200 630"><defs><linearGradient id="g" x1="0" y1="0" x2="0" y2="1"><stop offset="0.55" stop-color="#0a0e17" stop-opacity="0"/><stop offset="1" stop-color="#0a0e17" stop-opacity="0.85"/></linearGradient></defs><rect width="1200" height="630" fill="#0a0e17"/><path d="M390.2 382.8 L508.8 302.0 L596.0 312.9 L430.4 196.1 L546.6 250.8 L688.3 330.6" fill="none" stroke="#E4032E" stroke-width="1.5" opacity="0.28"/><path d="M1171.9 141.8 L1095.2 251.2 L1283.7 255.0 L1364.7 301.3 L1344.0 181.0 L1243.2 58.6" fill="none" stroke="#FF6B4A" stroke-width="1.5" opacity="0.28"/><path d="M217.4 623.6 L192.1 719.9 L256.6 677.4 L102.6 669.6 L-62.5 552.4 L-135.9 466.9" fill="none" stroke="#FFB020" stroke-width="1.5" opacity="0.28"/><path d="M1137.9 343.3 L1100.5 238.0 L1220.9 348.1 L1213.9 231.8 L1168.8 220.9 L1084.1 237.9" fill="none" stroke="#E4032E" stroke-width="1.5" opacity="0.28"/><path d="M1041.1 320.0 L1156.2 427.1 L1178.4 369.7 L1103.4 381.2 L968.1 417.4 L1025.8 523.5" fill="none" stroke="#E4032E" stroke-width="1.5" opacity="0.28"/><path d="M849.5 255.2 L835.6 192.0 L762.4 116.8 L748.5 30.1 L680.7 -3.4 L639.7 16.2" fill="none" stroke="#FFB020" stroke-width="1.5" opacity="0.28"/><path d="M306.5 309.8 L134.4 208.6 L195.3 118.0 L105.3 2.7 L-0.1 30.6 L-31.0 111.2" fill="none" stroke="#E4032E" stroke-width="1.5" opacity="0.28"/><path d="M594.9 591.8 L683.5 482.8 L859.1 584.3 L762.3 652.8 L723.3 714.9 L839.8 622.5" fill="none" stroke="#E4032E" stroke-width="1.5" opacity="0.28"/><path d="M74.1 226.1 L-29.2 235.0 L39.3 216.7 L114.4 241.0 L193.6 167.7 L111.2 228.7" fill="none" stroke="#FFB020" stroke-width="1.5" opacity="0.28"/><path d="M539.9 446.6 L701.1 555.8 L657.4 653.9 L694.9 703.4 L809.5 759.8 L860.6 735.7" fill="none" stroke="#FFB020" stroke-width="1.5" opacity="0.28"/><circle cx="334.8" cy="510.4" r="57.0" fill="#FF6B4A" opacity="0.09"/><circle cx="334.8" cy="510.4" r="28.5" fill="#FF6B4A" opacity="0.20"/><circle cx="334.8" cy="510.4" r="8.0" fill="#ffffff" opacity="0.82"/><circle cx="268.7" cy="324.2" r="150.1" fill="#FF6B4A" opacity="0.09"/><circle cx="268.7" cy="324.2" r="75.0" fill="#FF6B4A" opacity="0.20"/><circle cx="268.7" cy="324.2" r="21.0" fill="#ffffff" opacity="0.82"/><circle cx="36.8" cy="190.8" r="192.3" fill="#E4032E" opacity="0.09"/><circle cx="36.8" cy="190.8" r="96.1" fill="#E4032E" opacity="0.20"/><circle cx="36.8" cy="190.8" r="26.9" fill="#ffffff" opacity="0.82"/><circle cx="981.9" cy="243.9" r="152.7" fill="#FF6B4A" opacity="0.09"/><circle cx="981.9" cy="243.9" r="76.4" fill="#FF6B4A" opacity="0.20"/><circle cx="981.9" cy="243.9" r="21.4" fill="#ffffff" opacity="0.82"/><circle cx="786.6" cy="124.7" r="128.6" fill="#FF6B4A" opacity="0.09"/><circle cx="786.6" cy="124.7" r="64.3" fill="#FF6B4A" opacity="0.20"/><circle cx="786.6" cy="124.7" r="18.0" fill="#ffffff" opacity="0.82"/><circle cx="812.4" cy="499.9" r="229.2" fill="#FF6B4A" opacity="0.09"/><circle cx="812.4" cy="499.9" r="114.6" fill="#FF6B4A" opacity="0.20"/><circle cx="812.4" cy="499.9" r="32.1" fill="#ffffff" opacity="0.82"/><circle cx="539.9" cy="254.7" r="131.5" fill="#E4032E" opacity="0.09"/><circle cx="539.9" cy="254.7" r="65.8" fill="#E4032E" opacity="0.20"/><circle cx="539.9" cy="254.7" r="18.4" fill="#ffffff" opacity="0.82"/><circle cx="1196.4" cy="508.7" r="224.2" fill="#FFB020" opacity="0.09"/><circle cx="1196.4" cy="508.7" r="112.1" fill="#FFB020" opacity="0.20"/><circle cx="1196.4" cy="508.7" r="31.4" fill="#ffffff" opacity="0.82"/><circle cx="753.8" cy="405.8" r="209.5" fill="#FF6B4A" opacity="0.09"/><circle cx="753.8" cy="405.8" r="104.8" fill="#FF6B4A" opacity="0.20"/><circle cx="753.8" cy="405.8" r="29.3" fill="#ffffff" opacity="0.82"/><circle cx="799.0" cy="392.4" r="100.1" fill="#E4032E" opacity="0.09"/><circle cx="799.0" cy="392.4" r="50.1" fill="#E4032E" opacity="0.20"/><circle cx="799.0" cy="392.4" r="14.0" fill="#ffffff" opacity="0.82"/><circle cx="235.1" cy="114.1" r="256.0" fill="#FF6B4A" opacity="0.09"/><circle cx="235.1" cy="114.1" r="128.0" fill="#FF6B4A" opacity="0.20"/><circle cx="235.1" cy="114.1" r="35.8" fill="#ffffff" opacity="0.82"/><circle cx="922.8" cy="211.3" r="112.8" fill="#E4032E" opacity="0.09"/><circle cx="922.8" cy="211.3" r="56.4" fill="#E4032E" opacity="0.20"/><circle cx="922.8" cy="211.3" r="15.8" fill="#ffffff" opacity="0.82"/><circle cx="1052.4" cy="480.2" r="276.3" fill="#FFB020" opacity="0.09"/><circle cx="1052.4" cy="480.2" r="138.1" fill="#FFB020" opacity="0.20"/><circle cx="1052.4" cy="480.2" r="38.7" fill="#ffffff" opacity="0.82"/><circle cx="162.8" cy="520.7" r="257.5" fill="#FFB020" opacity="0.09"/><circle cx="162.8" cy="520.7" r="128.8" fill="#FFB020" opacity="0.20"/><circle cx="162.8" cy="520.7" r="36.1" fill="#ffffff" opacity="0.82"/><circle cx="314.6" cy="288.3" r="59.3" fill="#E4032E" opacity="0.09"/><circle cx="314.6" cy="288.3" r="29.7" fill="#E4032E" opacity="0.20"/><circle cx="314.6" cy="288.3" r="8.3" fill="#ffffff" opacity="0.82"/><circle cx="825.7" cy="95.7" r="265.9" fill="#FF6B4A" opacity="0.09"/><circle cx="825.7" cy="95.7" r="133.0" fill="#FF6B4A" opacity="0.20"/><circle cx="825.7" cy="95.7" r="37.2" fill="#ffffff" opacity="0.82"/><circle cx="1145.9" cy="597.1" r="332.7" fill="#FFB020" opacity="0.09"/><circle cx="1145.9" cy="597.1" r="166.4" fill="#FFB020" opacity="0.20"/><circle cx="1145.9" cy="597.1" r="46.6" fill="#ffffff" opacity="0.82"/><circle cx="798.2" cy="599.2" r="48.3" fill="#FFB020" opacity="0.09"/><circle cx="798.2" cy="599.2" r="24.2" fill="#FFB020" opacity="0.20"/><circle cx="798.2" cy="599.2" r="6.8" fill="#ffffff" opacity="0.82"/><circle cx="97.2" cy="213.4" r="210.3" fill="#E4032E" opacity="0.09"/><circle cx="97.2" cy="213.4" r="105.1" fill="#E4032E" opacity="0.20"/><circle cx="97.2" cy="213.4" r="29.4" fill="#ffffff" opacity="0.82"/><circle cx="840.0" cy="29.3" r="117.2" fill="#E4032E" opacity="0.09"/><circle cx="840.0" cy="29.3" r="58.6" fill="#E4032E" opacity="0.20"/><circle cx="840.0" cy="29.3" r="16.4" fill="#ffffff" opacity="0.82"/><circle cx="607.0" cy="189.9" r="225.8" fill="#FF6B4A" opacity="0.09"/><circle cx="607.0" cy="189.9" r="112.9" fill="#FF6B4A" opacity="0.20"/><circle cx="607.0" cy="189.9" r="31.6" fill="#ffffff" opacity="0.82"/><circle cx="1011.5" cy="503.1" r="85.5" fill="#FF6B4A" opacity="0.09"/><circle cx="1011.5" cy="503.1" r="42.7" fill="#FF6B4A" opacity="0.20"/><circle cx="1011.5" cy="503.1" r="12.0" fill="#ffffff" opacity="0.82"/><circle cx="366.8" cy="588.8" r="243.9" fill="#E4032E" opacity="0.09"/><circle cx="366.8" cy="588.8" r="122.0" fill="#E4032E" opacity="0.20"/><circle cx="366.8" cy="588.8" r="34.2" fill="#ffffff" opacity="0.82"/><circle cx="993.7" cy="8.9" r="49.5" fill="#E4032E" opacity="0.09"/><circle cx="993.7" cy="8.9" r="24.8" fill="#E4032E" opacity="0.20"/><circle cx="993.7" cy="8.9" r="6.9" fill="#ffffff" opacity="0.82"/><circle cx="597.1" cy="609.5" r="289.3" fill="#FF6B4A" opacity="0.09"/><circle cx="597.1" cy="609.5" r="144.6" fill="#FF6B4A" opacity="0.20"/><circle cx="597.1" cy="609.5" r="40.5" fill="#ffffff" opacity="0.82"/><circle cx="652.0" cy="583.7" r="315.1" fill="#FFB020" opacity="0.09"/><circle cx="652.0" cy="583.7" r="157.5" fill="#FFB020" opacity="0.20"/><circle cx="652.0" cy="583.7" r="44.1" fill="#ffffff" opacity="0.82"/><circle cx="265.3" cy="462.8" r="48.6" fill="#E4032E" opacity="0.09"/><circle cx="265.3" cy="462.8" r="24.3" fill="#E4032E" opacity="0.20"/><circle cx="265.3" cy="462.8" r="6.8" fill="#ffffff" opacity="0.82"/><circle cx="864.5" cy="304.0" r="218.9" fill="#FF6B4A" opacity="0.09"/><circle cx="864.5" cy="304.0" r="109.5" fill="#FF6B4A" opacity="0.20"/><circle cx="864.5" cy="304.0" r="30.7" fill="#ffffff" opacity="0.82"/><circle cx="47.1" cy="447.1" r="203.0" fill="#FF6B4A" opacity="0.09"/><circle cx="47.1" cy="447.1" r="101.5" fill="#FF6B4A" opacity="0.20"/><circle cx="47.1" cy="447.1" r="28.4" fill="#ffffff" opacity="0.82"/><circle cx="1052.5" cy="319.9" r="332.8" fill="#FFB020" opacity="0.09"/><circle cx="1052.5" cy="319.9" r="166.4" fill="#FFB020" opacity="0.20"/><circle cx="1052.5" cy="319.9" r="46.6" fill="#ffffff" opacity="0.82"/><circle cx="686.3" cy="62.6" r="105.3" fill="#E4032E" opacity="0.09"/><circle cx="686.3" cy="62.6" r="52.6" fill="#E4032E" opacity="0.20"/><circle cx="686.3" cy="62.6" r="14.7" fill="#ffffff" opacity="0.82"/><circle cx="682.2" cy="250.0" r="215.8" fill="#FF6B4A" opacity="0.09"/><circle cx="682.2" cy="250.0" r="107.9" fill="#FF6B4A" opacity="0.20"/><circle cx="682.2" cy="250.0" r="30.2" fill="#ffffff" opacity="0.82"/><circle cx="34.3" cy="43.4" r="238.8" fill="#E4032E" opacity="0.09"/><circle cx="34.3" cy="43.4" r="119.4" fill="#E4032E" opacity="0.20"/><circle cx="34.3" cy="43.4" r="33.4" fill="#ffffff" opacity="0.82"/><circle cx="1121.8" cy="408.1" r="103.3" fill="#FFB020" opacity="0.09"/><circle cx="1121.8" cy="408.1" r="51.7" fill="#FFB020" opacity="0.20"/><circle cx="1121.8" cy="408.1" r="14.5" fill="#ffffff" opacity="0.82"/><circle cx="1063.3" cy="376.3" r="214.3" fill="#FFB020" opacity="0.09"/><circle cx="1063.3" cy="376.3" r="107.2" fill="#FFB020" opacity="0.20"/><circle cx="1063.3" cy="376.3" r="30.0" fill="#ffffff" opacity="0.82"/><circle cx="197.2" cy="164.9" r="128.4" fill="#FF6B4A" opacity="0.09"/><circle cx="197.2" cy="164.9" r="64.2" fill="#FF6B4A" opacity="0.20"/><circle cx="197.2" cy="164.9" r="18.0" fill="#ffffff" opacity="0.82"/><circle cx="1022.6" cy="351.6" r="194.7" fill="#E4032E" opacity="0.09"/><circle cx="1022.6" cy="351.6" r="97.4" fill="#E4032E" opacity="0.20"/><circle cx="1022.6" cy="351.6" r="27.3" fill="#ffffff" opacity="0.82"/><circle cx="743.9" cy="29.0" r="260.6" fill="#E4032E" opacity="0.09"/><circle cx="743.9" cy="29.0" r="130.3" fill="#E4032E" opacity="0.20"/><circle cx="743.9" cy="29.0" r="36.5" fill="#ffffff" opacity="0.82"/><rect width="1200" height="630" fill="url(#g)"/><text x="1170" y="604" text-anchor="end" font-family="sans-serif" font-size="26" fill="#E4B24C" opacity="0.92">WARHOOK LEO CROC</text></svg>