<svg xmlns="http://www.w3.org/2000/svg" width="1200" height="630" viewBox="0 0 1200 630"><defs><linearGradient id="g" x1="0" y1="0" x2="0" y2="1"><stop offset="0.55" stop-color="#0a0e17" stop-opacity="0"/><stop offset="1" stop-color="#0a0e17" stop-opacity="0.85"/></linearGradient></defs><rect width="1200" height="630" fill="#0a0e17"/><path d="M1133.0 314.5 L1080.1 435.0 L936.8 392.2 L867.0 419.9 L954.8 529.2 L818.4 621.6" fill="none" stroke="#FFD100" stroke-width="1.5" opacity="0.28"/><path d="M817.5 558.7 L779.8 660.7 L680.6 551.4 L519.7 674.6 L571.7 703.9 L428.7 776.7" fill="none" stroke="#FFD100" stroke-width="1.5" opacity="0.28"/><path d="M475.8 63.5 L493.8 -27.7 L438.2 11.3 L512.7 -37.5 L389.2 -116.5 L306.4 -196.5" fill="none" stroke="#003F6C" stroke-width="1.5" opacity="0.28"/><path d="M1141.2 480.3 L1039.2 564.0 L1213.2 553.3 L1208.9 554.1 L1125.2 612.5 L1303.0 643.5" fill="none" stroke="#E4032E" stroke-width="1.5" opacity="0.28"/><path d="M481.8 95.7 L306.0 132.5 L181.1 198.9 L22.1 207.5 L204.6 216.9 L95.1 169.0" fill="none" stroke="#003F6C" stroke-width="1.5" opacity="0.28"/><path d="M956.6 437.8 L911.9 350.9 L828.4 234.5 L792.8 223.8 L804.4 263.2 L895.2 195.1" fill="none" stroke="#FFD100" stroke-width="1.5" opacity="0.28"/><path d="M594.0 19.3 L551.6 31.5 L388.0 68.4 L530.9 153.3 L615.4 140.4 L805.3 79.7" fill="none" stroke="#E4032E" stroke-width="1.5" opacity="0.28"/><circle cx="883.8" cy="441.2" r="313.6" fill="#FFD100" opacity="0.09"/><circle cx="883.8" cy="441.2" r="156.8" fill="#FFD100" opacity="0.20"/><circle cx="883.8" cy="441.2" r="43.9" fill="#ffffff" opacity="0.82"/><circle cx="715.4" cy="33.0" r="128.6" fill="#003F6C" opacity="0.09"/><circle cx="715.4" cy="33.0" r="64.3" fill="#003F6C" opacity="0.20"/><circle cx="715.4" cy="33.0" r="18.0" fill="#ffffff" opacity="0.82"/><circle cx="636.6" cy="290.7" r="296.8" fill="#E4032E" opacity="0.09"/><circle cx="636.6" cy="290.7" r="148.4" fill="#E4032E" opacity="0.20"/><circle cx="636.6" cy="290.7" r="41.5" fill="#ffffff" opacity="0.82"/><circle cx="866.1" cy="43.8" r="216.7" fill="#E4032E" opacity="0.09"/><circle cx="866.1" cy="43.8" r="108.4" fill="#E4032E" opacity="0.20"/><circle cx="866.1" cy="43.8" r="30.3" fill="#ffffff" opacity="0.82"/><circle cx="1092.2" cy="124.0" r="224.8" fill="#E4032E" opacity="0.09"/><circle cx="1092.2" cy="124.0" r="112.4" fill="#E4032E" opacity="0.20"/><circle cx="1092.2" cy="124.0" r="31.5" fill="#ffffff" opacity="0.82"/><circle cx="988.7" cy="208.8" r="308.1" fill="#E4032E" opacity="0.09"/><circle cx="988.7" cy="208.8" r="154.1" fill="#E4032E" opacity="0.20"/><circle cx="988.7" cy="208.8" r="43.1" fill="#ffffff" opacity="0.82"/><circle cx="613.5" cy="205.3" r="83.1" fill="#003F6C" opacity="0.09"/><circle cx="613.5" cy="205.3" r="41.5" fill="#003F6C" opacity="0.20"/><circle cx="613.5" cy="205.3" r="11.6" fill="#ffffff" opacity="0.82"/><circle cx="104.9" cy="458.7" r="152.6" fill="#E4032E" opacity="0.09"/><circle cx="104.9" cy="458.7" r="76.3" fill="#E4032E" opacity="0.20"/><circle cx="104.9" cy="458.7" r="21.4" fill="#ffffff" opacity="0.82"/><circle cx="856.4" cy="141.4" r="187.4" fill="#003F6C" opacity="0.09"/><circle cx="856.4" cy="141.4" r="93.7" fill="#003F6C" opacity="0.20"/><circle cx="856.4" cy="141.4" r="26.2" fill="#ffffff" opacity="0.82"/><circle cx="65.6" cy="518.4" r="87.2" fill="#003F6C" opacity="0.09"/><circle cx="65.6" cy="518.4" r="43.6" fill="#003F6C" opacity="0.20"/><circle cx="65.6" cy="518.4" r="12.2" fill="#ffffff" opacity="0.82"/><circle cx="832.7" cy="230.2" r="50.0" fill="#FFD100" opacity="0.09"/><circle cx="832.7" cy="230.2" r="25.0" fill="#FFD100" opacity="0.20"/><circle cx="832.7" cy="230.2" r="7.0" fill="#ffffff" opacity="0.82"/><circle cx="270.0" cy="249.9" r="307.2" fill="#003F6C" opacity="0.09"/><circle cx="270.0" cy="249.9" r="153.6" fill="#003F6C" opacity="0.20"/><circle cx="270.0" cy="249.9" r="43.0" fill="#ffffff" opacity="0.82"/><circle cx="244.4" cy="156.6" r="320.8" fill="#FFD100" opacity="0.09"/><circle cx="244.4" cy="156.6" r="160.4" fill="#FFD100" opacity="0.20"/><circle cx="244.4" cy="156.6" r="44.9" fill="#ffffff" opacity="0.82"/><circle cx="374.2" cy="596.0" r="71.4" fill="#003F6C" opacity="0.09"/><circle cx="374.2" cy="596.0" r="35.7" fill="#003F6C" opacity="0.20"/><circle cx="374.2" cy="596.0" r="10.0" fill="#ffffff" opacity="0.82"/><circle cx="710.2" cy="402.0" r="331.4" fill="#FFD100" opacity="0.09"/><circle cx="710.2" cy="402.0" r="165.7" fill="#FFD100" opacity="0.20"/><circle cx="710.2" cy="402.0" r="46.4" fill="#ffffff" opacity="0.82"/><circle cx="12.3" cy="230.7" r="294.6" fill="#003F6C" opacity="0.09"/><circle cx="12.3" cy="230.7" r="147.3" fill="#003F6C" opacity="0.20"/><circle cx="12.3" cy="230.7" r="41.2" fill="#ffffff" opacity="0.82"/><circle cx="288.3" cy="433.0" r="217.2" fill="#E4032E" opacity="0.09"/><circle cx="288.3" cy="433.0" r="108.6" fill="#E4032E" opacity="0.20"/><circle cx="288.3" cy="433.0" r="30.4" fill="#ffffff" opacity="0.82"/><circle cx="272.0" cy="563.0" r="58.4" fill="#003F6C" opacity="0.09"/><circle cx="272.0" cy="563.0" r="29.2" fill="#003F6C" opacity="0.20"/><circle cx="272.0" cy="563.0" r="8.2" fill="#ffffff" opacity="0.82"/><circle cx="565.7" cy="72.4" r="271.7" fill="#003F6C" opacity="0.09"/><circle cx="565.7" cy="72.4" r="135.9" fill="#003F6C" opacity="0.20"/><circle cx="565.7" cy="72.4" r="38.0" fill="#ffffff" opacity="0.82"/><circle cx="1056.4" cy="461.9" r="132.1" fill="#003F6C" opacity="0.09"/><circle cx="1056.4" cy="461.9" r="66.1" fill="#003F6C" opacity="0.20"/><circle cx="1056.4" cy="461.9" r="18.5" fill="#ffffff" opacity="0.82"/><circle cx="1.4" cy="388.0" r="317.9" fill="#FFD100" opacity="0.09"/><circle cx="1.4" cy="388.0" r="158.9" fill="#FFD100" opacity="0.20"/><circle cx="1.4" cy="388.0" r="44.5" fill="#ffffff" opacity="0.82"/><circle cx="570.7" cy="438.1" r="155.4" fill="#E4032E" opacity="0.09"/><circle cx="570.7" cy="438.1" r="77.7" fill="#E4032E" opacity="0.20"/><circle cx="570.7" cy="438.1" r="21.8" fill="#ffffff" opacity="0.82"/><circle cx="724.5" cy="369.1" r="251.9" fill="#E4032E" opacity="0.09"/><circle cx="724.5" cy="369.1" r="125.9" fill="#E4032E" opacity="0.20"/><circle cx="724.5" cy="369.1" r="35.3" fill="#ffffff" opacity="0.82"/><circle cx="21.5" cy="386.4" r="246.2" fill="#003F6C" opacity="0.09"/><circle cx="21.5" cy="386.4" r="123.1" fill="#003F6C" opacity="0.20"/><circle cx="21.5" cy="386.4" r="34.5" fill="#ffffff" opacity="0.82"/><circle cx="1139.3" cy="165.7" r="143.1" fill="#003F6C" opacity="0.09"/><circle cx="1139.3" cy="165.7" r="71.6" fill="#003F6C" opacity="0.20"/><circle cx="1139.3" cy="165.7" r="20.0" fill="#ffffff" opacity="0.82"/><circle cx="339.1" cy="67.9" r="201.4" fill="#E4032E" opacity="0.09"/><circle cx="339.1" cy="67.9" r="100.7" fill="#E4032E" opacity="0.20"/><circle cx="339.1" cy="67.9" r="28.2" fill="#ffffff" opacity="0.82"/><circle cx="874.2" cy="162.4" r="235.7" fill="#E4032E" opacity="0.09"/><circle cx="874.2" cy="162.4" r="117.9" fill="#E4032E" opacity="0.20"/><circle cx="874.2" cy="162.4" r="33.0" fill="#ffffff" opacity="0.82"/><circle cx="1110.5" cy="606.7" r="250.6" fill="#E4032E" opacity="0.09"/><circle cx="1110.5" cy="606.7" r="125.3" fill="#E4032E" opacity="0.20"/><circle cx="1110.5" cy="606.7" r="35.1" fill="#ffffff" opacity="0.82"/><circle cx="1005.4" cy="138.9" r="121.9" fill="#003F6C" opacity="0.09"/><circle cx="1005.4" cy="138.9" r="60.9" fill="#003F6C" opacity="0.20"/><circle cx="1005.4" cy="138.9" r="17.1" fill="#ffffff" opacity="0.82"/><circle cx="743.0" cy="482.6" r="321.5" fill="#FFD100" opacity="0.09"/><circle cx="743.0" cy="482.6" r="160.8" fill="#FFD100" opacity="0.20"/><circle cx="743.0" cy="482.6" r="45.0" fill="#ffffff" opacity="0.82"/><circle cx="528.8" cy="3.2" r="116.9" fill="#003F6C" opacity="0.09"/><circle cx="528.8" cy="3.2" r="58.5" fill="#003F6C" opacity="0.20"/><circle cx="528.8" cy="3.2" r="16.4" fill="#ffffff" opacity="0.82"/><circle cx="1016.1" cy="234.5" r="254.2" fill="#003F6C" opacity="0.09"/><circle cx="1016.1" cy="234.5" r="127.1" fill="#003F6C" opacity="0.20"/><circle cx="1016.1" cy="234.5" r="35.6" fill="#ffffff" opacity="0.82"/><circle cx="1033.9" cy="618.8" r="152.6" fill="#003F6C" opacity="0.09"/><circle cx="1033.9" cy="618.8" r="76.3" fill="#003F6C" opacity="0.20"/><circle cx="1033.9" cy="618.8" r="21.4" fill="#ffffff" opacity="0.82"/><circle cx="181.3" cy="624.4" r="58.0" fill="#003F6C" opacity="0.09"/><circle cx="181.3" cy="624.4" r="29.0" fill="#003F6C" opacity="0.20"/><circle cx="181.3" cy="624.4" r="8.1" fill="#ffffff" opacity="0.82"/><circle cx="133.1" cy="154.6" r="209.0" fill="#FFD100" opacity="0.09"/><circle cx="133.1" cy="154.6" r="104.5" fill="#FFD100" opacity="0.20"/><circle cx="133.1" cy="154.6" r="29.3" fill="#ffffff" opacity="0.82"/><circle cx="594.1" cy="431.9" r="286.4" fill="#FFD100" opacity="0.09"/><circle cx="594.1" cy="431.9" r="143.2" fill="#FFD100" opacity="0.20"/><circle cx="594.1" cy="431.9" r="40.1" fill="#ffffff" opacity="0.82"/><circle cx="737.7" cy="272.7" r="323.3" fill="#E4032E" opacity="0.09"/><circle cx="737.7" cy="272.7" r="161.7" fill="#E4032E" opacity="0.20"/><circle cx="737.7" cy="272.7" r="45.3" fill="#ffffff" opacity="0.82"/><circle cx="464.3" cy="513.4" r="158.8" fill="#E4032E" opacity="0.09"/><circle cx="464.3" cy="513.4" r="79.4" fill="#E4032E" opacity="0.20"/><circle cx="464.3" cy="513.4" r="22.2" fill="#ffffff" opacity="0.82"/><circle cx="1136.8" cy="457.7" r="303.8" fill="#FFD100" opacity="0.09"/><circle cx="1136.8" cy="457.7" r="151.9" fill="#FFD100" opacity="0.20"/><circle cx="1136.8" cy="457.7" r="42.5" fill="#ffffff" opacity="0.82"/><circle cx="813.1" cy="12.2" r="105.9" fill="#003F6C" opacity="0.09"/><circle cx="813.1" cy="12.2" r="52.9" fill="#003F6C" opacity="0.20"/><circle cx="813.1" cy="12.2" r="14.8" fill="#ffffff" opacity="0.82"/><circle cx="621.7" cy="567.7" r="95.2" fill="#003F6C" opacity="0.09"/><circle cx="621.7" cy="567.7" r="47.6" fill="#003F6C" opacity="0.20"/><circle cx="621.7" cy="567.7" r="13.3" fill="#ffffff" opacity="0.82"/><circle cx="134.7" cy="165.5" r="54.8" fill="#E4032E" opacity="0.09"/><circle cx="134.7" cy="165.5" r="27.4" fill="#E4032E" opacity="0.20"/><circle cx="134.7" cy="165.5" r="7.7" fill="#ffffff" opacity="0.82"/><circle cx="65.1" cy="292.1" r="206.8" fill="#E4032E" opacity="0.09"/><circle cx="65.1" cy="292.1" r="103.4" fill="#E4032E" opacity="0.20"/><circle cx="65.1" cy="292.1" r="29.0" fill="#ffffff" opacity="0.82"/><circle cx="136.5" cy="143.0" r="316.3" fill="#003F6C" opacity="0.09"/><circle cx="136.5" cy="143.0" r="158.1" fill="#003F6C" opacity="0.20"/><circle cx="136.5" cy="143.0" r="44.3" fill="#ffffff" opacity="0.82"/><circle cx="1155.3" cy="3.7" r="50.6" fill="#003F6C" opacity="0.09"/><circle cx="1155.3" cy="3.7" r="25.3" fill="#003F6C" opacity="0.20"/><circle cx="1155.3" cy="3.7" r="7.1" fill="#ffffff" opacity="0.82"/><circle cx="1079.5" cy="402.3" r="76.4" fill="#003F6C" opacity="0.09"/><circle cx="1079.5" cy="402.3" r="38.2" fill="#003F6C" opacity="0.20"/><circle cx="1079.5" cy="402.3" r="10.7" fill="#ffffff" opacity="0.82"/><circle cx="729.2" cy="12.5" r="293.3" fill="#FFD100" opacity="0.09"/><circle cx="729.2" cy="12.5" r="146.7" fill="#FFD100" opacity="0.20"/><circle cx="729.2" cy="12.5" r="41.1" fill="#ffffff" opacity="0.82"/><rect width="1200" height="630" fill="url(#g)"/><text x="1170" y="604" text-anchor="end" font-family="sans-serif" font-size="26" fill="#E4B24C" opacity="0.92">WARHOOK LEO CROC</text></svg>