<svg xmlns="http://www.w3.org/2000/svg" width="1200" height="630" viewBox="0 0 1200 630"><defs><linearGradient id="g" x1="0" y1="0" x2="0" y2="1"><stop offset="0.55" stop-color="#0a0e17" stop-opacity="0"/><stop offset="1" stop-color="#0a0e17" stop-opacity="0.85"/></linearGradient></defs><rect width="1200" height="630" fill="#0a0e17"/><path d="M835.9 500.8 L783.3 496.6 L674.3 414.4 L706.9 443.2 L858.4 461.5 L821.8 490.4" fill="none" stroke="#00E5FF" stroke-width="1.5" opacity="0.28"/><path d="M1134.4 417.2 L1276.5 451.5 L1455.3 425.8 L1506.2 463.6 L1658.3 488.9 L1775.9 520.4" fill="none" stroke="#A56BFF" stroke-width="1.5" opacity="0.28"/><path d="M999.6 487.0 L1157.3 530.1 L1213.1 636.3 L1188.5 693.8 L1342.5 816.5 L1193.2 712.1" fill="none" stroke="#38E08A" stroke-width="1.5" opacity="0.28"/><path d="M591.7 91.2 L683.2 112.3 L621.2 228.3 L678.9 260.1 L791.6 295.8 L835.3 282.6" fill="none" stroke="#38E08A" stroke-width="1.5" opacity="0.28"/><path d="M325.0 466.5 L311.7 371.4 L254.1 464.7 L107.8 589.7 L261.6 598.8 L230.6 653.9" fill="none" stroke="#00E5FF" stroke-width="1.5" opacity="0.28"/><path d="M485.3 377.2 L319.8 413.2 L159.7 290.1 L250.7 175.4 L198.1 92.2 L154.5 -30.6" fill="none" stroke="#38E08A" stroke-width="1.5" opacity="0.28"/><path d="M184.5 335.2 L21.9 447.0 L-153.0 357.7 L20.1 239.7 L16.5 280.4 L131.4 167.6" fill="none" stroke="#00E5FF" stroke-width="1.5" opacity="0.28"/><path d="M866.3 244.8 L687.6 155.8 L707.7 123.8 L799.3 20.6 L874.8 106.7 L937.6 -9.5" fill="none" stroke="#A56BFF" stroke-width="1.5" opacity="0.28"/><circle cx="946.9" cy="378.5" r="315.0" fill="#38E08A" opacity="0.09"/><circle cx="946.9" cy="378.5" r="157.5" fill="#38E08A" opacity="0.20"/><circle cx="946.9" cy="378.5" r="44.1" fill="#ffffff" opacity="0.82"/><circle cx="944.5" cy="573.7" r="106.5" fill="#38E08A" opacity="0.09"/><circle cx="944.5" cy="573.7" r="53.3" fill="#38E08A" opacity="0.20"/><circle cx="944.5" cy="573.7" r="14.9" fill="#ffffff" opacity="0.82"/><circle cx="323.1" cy="235.4" r="54.1" fill="#00E5FF" opacity="0.09"/><circle cx="323.1" cy="235.4" r="27.1" fill="#00E5FF" opacity="0.20"/><circle cx="323.1" cy="235.4" r="7.6" fill="#ffffff" opacity="0.82"/><circle cx="538.6" cy="243.2" r="56.8" fill="#A56BFF" opacity="0.09"/><circle cx="538.6" cy="243.2" r="28.4" fill="#A56BFF" opacity="0.20"/><circle cx="538.6" cy="243.2" r="8.0" fill="#ffffff" opacity="0.82"/><circle cx="668.3" cy="515.3" r="157.9" fill="#A56BFF" opacity="0.09"/><circle cx="668.3" cy="515.3" r="79.0" fill="#A56BFF" opacity="0.20"/><circle cx="668.3" cy="515.3" r="22.1" fill="#ffffff" opacity="0.82"/><circle cx="613.1" cy="203.2" r="340.6" fill="#38E08A" opacity="0.09"/><circle cx="613.1" cy="203.2" r="170.3" fill="#38E08A" opacity="0.20"/><circle cx="613.1" cy="203.2" r="47.7" fill="#ffffff" opacity="0.82"/><circle cx="780.7" cy="363.8" r="113.2" fill="#38E08A" opacity="0.09"/><circle cx="780.7" cy="363.8" r="56.6" fill="#38E08A" opacity="0.20"/><circle cx="780.7" cy="363.8" r="15.8" fill="#ffffff" opacity="0.82"/><circle cx="712.4" cy="269.9" r="230.7" fill="#00E5FF" opacity="0.09"/><circle cx="712.4" cy="269.9" r="115.4" fill="#00E5FF" opacity="0.20"/><circle cx="712.4" cy="269.9" r="32.3" fill="#ffffff" opacity="0.82"/><circle cx="112.3" cy="171.5" r="92.2" fill="#00E5FF" opacity="0.09"/><circle cx="112.3" cy="171.5" r="46.1" fill="#00E5FF" opacity="0.20"/><circle cx="112.3" cy="171.5" r="12.9" fill="#ffffff" opacity="0.82"/><circle cx="730.0" cy="180.7" r="77.8" fill="#00E5FF" opacity="0.09"/><circle cx="730.0" cy="180.7" r="38.9" fill="#00E5FF" opacity="0.20"/><circle cx="730.0" cy="180.7" r="10.9" fill="#ffffff" opacity="0.82"/><circle cx="306.5" cy="488.7" r="289.9" fill="#38E08A" opacity="0.09"/><circle cx="306.5" cy="488.7" r="145.0" fill="#38E08A" opacity="0.20"/><circle cx="306.5" cy="488.7" r="40.6" fill="#ffffff" opacity="0.82"/><circle cx="956.6" cy="182.2" r="78.2" fill="#A56BFF" opacity="0.09"/><circle cx="956.6" cy="182.2" r="39.1" fill="#A56BFF" opacity="0.20"/><circle cx="956.6" cy="182.2" r="10.9" fill="#ffffff" opacity="0.82"/><circle cx="658.6" cy="383.7" r="114.5" fill="#00E5FF" opacity="0.09"/><circle cx="658.6" cy="383.7" r="57.3" fill="#00E5FF" opacity="0.20"/><circle cx="658.6" cy="383.7" r="16.0" fill="#ffffff" opacity="0.82"/><circle cx="818.6" cy="401.1" r="69.9" fill="#00E5FF" opacity="0.09"/><circle cx="818.6" cy="401.1" r="35.0" fill="#00E5FF" opacity="0.20"/><circle cx="818.6" cy="401.1" r="9.8" fill="#ffffff" opacity="0.82"/><circle cx="1120.2" cy="518.6" r="269.3" fill="#00E5FF" opacity="0.09"/><circle cx="1120.2" cy="518.6" r="134.7" fill="#00E5FF" opacity="0.20"/><circle cx="1120.2" cy="518.6" r="37.7" fill="#ffffff" opacity="0.82"/><circle cx="743.5" cy="17.0" r="202.5" fill="#A56BFF" opacity="0.09"/><circle cx="743.5" cy="17.0" r="101.3" fill="#A56BFF" opacity="0.20"/><circle cx="743.5" cy="17.0" r="28.4" fill="#ffffff" opacity="0.82"/><circle cx="789.1" cy="250.5" r="153.2" fill="#38E08A" opacity="0.09"/><circle cx="789.1" cy="250.5" r="76.6" fill="#38E08A" opacity="0.20"/><circle cx="789.1" cy="250.5" r="21.4" fill="#ffffff" opacity="0.82"/><circle cx="383.0" cy="477.7" r="306.0" fill="#A56BFF" opacity="0.09"/><circle cx="383.0" cy="477.7" r="153.0" fill="#A56BFF" opacity="0.20"/><circle cx="383.0" cy="477.7" r="42.8" fill="#ffffff" opacity="0.82"/><circle cx="1199.5" cy="161.4" r="141.4" fill="#00E5FF" opacity="0.09"/><circle cx="1199.5" cy="161.4" r="70.7" fill="#00E5FF" opacity="0.20"/><circle cx="1199.5" cy="161.4" r="19.8" fill="#ffffff" opacity="0.82"/><circle cx="497.7" cy="181.1" r="286.0" fill="#A56BFF" opacity="0.09"/><circle cx="497.7" cy="181.1" r="143.0" fill="#A56BFF" opacity="0.20"/><circle cx="497.7" cy="181.1" r="40.0" fill="#ffffff" opacity="0.82"/><circle cx="138.3" cy="118.1" r="339.6" fill="#38E08A" opacity="0.09"/><circle cx="138.3" cy="118.1" r="169.8" fill="#38E08A" opacity="0.20"/><circle cx="138.3" cy="118.1" r="47.5" fill="#ffffff" opacity="0.82"/><circle cx="1100.3" cy="477.3" r="317.7" fill="#A56BFF" opacity="0.09"/><circle cx="1100.3" cy="477.3" r="158.9" fill="#A56BFF" opacity="0.20"/><circle cx="1100.3" cy="477.3" r="44.5" fill="#ffffff" opacity="0.82"/><circle cx="1134.8" cy="10.3" r="215.8" fill="#A56BFF" opacity="0.09"/><circle cx="1134.8" cy="10.3" r="107.9" fill="#A56BFF" opacity="0.20"/><circle cx="1134.8" cy="10.3" r="30.2" fill="#ffffff" opacity="0.82"/><circle cx="213.3" cy="507.5" r="196.0" fill="#A56BFF" opacity="0.09"/><circle cx="213.3" cy="507.5" r="98.0" fill="#A56BFF" opacity="0.20"/><circle cx="213.3" cy="507.5" r="27.4" fill="#ffffff" opacity="0.82"/><circle cx="112.5" cy="312.5" r="230.9" fill="#A56BFF" opacity="0.09"/><circle cx="112.5" cy="312.5" r="115.4" fill="#A56BFF" opacity="0.20"/><circle cx="112.5" cy="312.5" r="32.3" fill="#ffffff" opacity="0.82"/><circle cx="896.6" cy="285.8" r="115.3" fill="#A56BFF" opacity="0.09"/><circle cx="896.6" cy="285.8" r="57.6" fill="#A56BFF" opacity="0.20"/><circle cx="896.6" cy="285.8" r="16.1" fill="#ffffff" opacity="0.82"/><circle cx="2.0" cy="21.4" r="160.0" fill="#38E08A" opacity="0.09"/><circle cx="2.0" cy="21.4" r="80.0" fill="#38E08A" opacity="0.20"/><circle cx="2.0" cy="21.4" r="22.4" fill="#ffffff" opacity="0.82"/><circle cx="322.0" cy="81.2" r="255.9" fill="#A56BFF" opacity="0.09"/><circle cx="322.0" cy="81.2" r="128.0" fill="#A56BFF" opacity="0.20"/><circle cx="322.0" cy="81.2" r="35.8" fill="#ffffff" opacity="0.82"/><circle cx="1105.8" cy="223.1" r="94.6" fill="#00E5FF" opacity="0.09"/><circle cx="1105.8" cy="223.1" r="47.3" fill="#00E5FF" opacity="0.20"/><circle cx="1105.8" cy="223.1" r="13.2" fill="#ffffff" opacity="0.82"/><circle cx="207.3" cy="540.4" r="340.8" fill="#38E08A" opacity="0.09"/><circle cx="207.3" cy="540.4" r="170.4" fill="#38E08A" opacity="0.20"/><circle cx="207.3" cy="540.4" r="47.7" fill="#ffffff" opacity="0.82"/><circle cx="32.4" cy="312.2" r="174.8" fill="#38E08A" opacity="0.09"/><circle cx="32.4" cy="312.2" r="87.4" fill="#38E08A" opacity="0.20"/><circle cx="32.4" cy="312.2" r="24.5" fill="#ffffff" opacity="0.82"/><circle cx="594.3" cy="145.3" r="326.1" fill="#00E5FF" opacity="0.09"/><circle cx="594.3" cy="145.3" r="163.0" fill="#00E5FF" opacity="0.20"/><circle cx="594.3" cy="145.3" r="45.6" fill="#ffffff" opacity="0.82"/><circle cx="269.1" cy="160.7" r="182.2" fill="#A56BFF" opacity="0.09"/><circle cx="269.1" cy="160.7" r="91.1" fill="#A56BFF" opacity="0.20"/><circle cx="269.1" cy="160.7" r="25.5" fill="#ffffff" opacity="0.82"/><circle cx="259.2" cy="359.7" r="224.4" fill="#A56BFF" opacity="0.09"/><circle cx="259.2" cy="359.7" r="112.2" fill="#A56BFF" opacity="0.20"/><circle cx="259.2" cy="359.7" r="31.4" fill="#ffffff" opacity="0.82"/><circle cx="1034.6" cy="38.1" r="113.7" fill="#00E5FF" opacity="0.09"/><circle cx="1034.6" cy="38.1" r="56.8" fill="#00E5FF" opacity="0.20"/><circle cx="1034.6" cy="38.1" r="15.9" fill="#ffffff" opacity="0.82"/><rect width="1200" height="630" fill="url(#g)"/><text x="1170" y="604" text-anchor="end" font-family="sans-serif" font-size="26" fill="#E4B24C" opacity="0.92">WARHOOK LEO CROC</text></svg>