<svg xmlns="http://www.w3.org/2000/svg" width="1200" height="630" viewBox="0 0 1200 630"><defs><linearGradient id="g" x1="0" y1="0" x2="0" y2="1"><stop offset="0.55" stop-color="#0a0e17" stop-opacity="0"/><stop offset="1" stop-color="#0a0e17" stop-opacity="0.85"/></linearGradient></defs><rect width="1200" height="630" fill="#0a0e17"/><path d="M61.6 195.6 L162.3 219.7 L287.2 202.6 L453.6 240.7 L269.4 284.6 L450.9 331.7" fill="none" stroke="#A56BFF" stroke-width="1.5" opacity="0.28"/><path d="M529.3 363.2 L665.9 430.5 L615.1 363.0 L667.9 402.9 L807.5 385.8 L803.0 349.1" fill="none" stroke="#A56BFF" stroke-width="1.5" opacity="0.28"/><path d="M567.9 554.6 L538.7 589.9 L536.5 537.0 L701.5 626.9 L812.2 657.9 L897.0 704.9" fill="none" stroke="#A56BFF" stroke-width="1.5" opacity="0.28"/><path d="M586.0 476.0 L693.7 482.0 L836.4 377.3 L890.7 272.8 L782.7 170.1 L860.5 247.1" fill="none" stroke="#38E08A" stroke-width="1.5" opacity="0.28"/><path d="M765.5 161.7 L608.5 201.6 L546.1 287.5 L666.4 261.6 L754.4 332.6 L769.2 425.9" fill="none" stroke="#00E5FF" stroke-width="1.5" opacity="0.28"/><path d="M175.2 396.4 L318.8 397.5 L138.4 398.3 L237.6 416.9 L96.0 416.7 L-65.0 518.8" fill="none" stroke="#00E5FF" stroke-width="1.5" opacity="0.28"/><path d="M1185.2 611.4 L1033.0 642.5 L957.3 665.7 L885.4 649.9 L777.2 676.3 L740.9 578.4" fill="none" stroke="#A56BFF" stroke-width="1.5" opacity="0.28"/><path d="M435.3 253.0 L481.6 335.3 L324.1 278.1 L244.2 311.3 L303.4 293.3 L301.9 326.4" fill="none" stroke="#A56BFF" stroke-width="1.5" opacity="0.28"/><path d="M692.8 167.5 L596.7 186.6 L682.8 284.0 L501.7 325.9 L569.2 243.0 L479.2 206.8" fill="none" stroke="#38E08A" stroke-width="1.5" opacity="0.28"/><circle cx="270.5" cy="118.1" r="332.9" fill="#A56BFF" opacity="0.09"/><circle cx="270.5" cy="118.1" r="166.5" fill="#A56BFF" opacity="0.20"/><circle cx="270.5" cy="118.1" r="46.6" fill="#ffffff" opacity="0.82"/><circle cx="824.9" cy="169.7" r="253.4" fill="#A56BFF" opacity="0.09"/><circle cx="824.9" cy="169.7" r="126.7" fill="#A56BFF" opacity="0.20"/><circle cx="824.9" cy="169.7" r="35.5" fill="#ffffff" opacity="0.82"/><circle cx="698.5" cy="362.7" r="61.5" fill="#38E08A" opacity="0.09"/><circle cx="698.5" cy="362.7" r="30.7" fill="#38E08A" opacity="0.20"/><circle cx="698.5" cy="362.7" r="8.6" fill="#ffffff" opacity="0.82"/><circle cx="647.4" cy="426.3" r="285.3" fill="#00E5FF" opacity="0.09"/><circle cx="647.4" cy="426.3" r="142.7" fill="#00E5FF" opacity="0.20"/><circle cx="647.4" cy="426.3" r="39.9" fill="#ffffff" opacity="0.82"/><circle cx="832.2" cy="486.3" r="313.0" fill="#A56BFF" opacity="0.09"/><circle cx="832.2" cy="486.3" r="156.5" fill="#A56BFF" opacity="0.20"/><circle cx="832.2" cy="486.3" r="43.8" fill="#ffffff" opacity="0.82"/><circle cx="1146.7" cy="211.4" r="244.5" fill="#A56BFF" opacity="0.09"/><circle cx="1146.7" cy="211.4" r="122.3" fill="#A56BFF" opacity="0.20"/><circle cx="1146.7" cy="211.4" r="34.2" fill="#ffffff" opacity="0.82"/><circle cx="720.8" cy="420.5" r="62.6" fill="#00E5FF" opacity="0.09"/><circle cx="720.8" cy="420.5" r="31.3" fill="#00E5FF" opacity="0.20"/><circle cx="720.8" cy="420.5" r="8.8" fill="#ffffff" opacity="0.82"/><circle cx="667.0" cy="448.0" r="109.9" fill="#A56BFF" opacity="0.09"/><circle cx="667.0" cy="448.0" r="55.0" fill="#A56BFF" opacity="0.20"/><circle cx="667.0" cy="448.0" r="15.4" fill="#ffffff" opacity="0.82"/><circle cx="684.0" cy="218.5" r="116.9" fill="#00E5FF" opacity="0.09"/><circle cx="684.0" cy="218.5" r="58.5" fill="#00E5FF" opacity="0.20"/><circle cx="684.0" cy="218.5" r="16.4" fill="#ffffff" opacity="0.82"/><circle cx="867.2" cy="433.2" r="109.9" fill="#38E08A" opacity="0.09"/><circle cx="867.2" cy="433.2" r="54.9" fill="#38E08A" opacity="0.20"/><circle cx="867.2" cy="433.2" r="15.4" fill="#ffffff" opacity="0.82"/><circle cx="626.1" cy="359.0" r="252.9" fill="#00E5FF" opacity="0.09"/><circle cx="626.1" cy="359.0" r="126.5" fill="#00E5FF" opacity="0.20"/><circle cx="626.1" cy="359.0" r="35.4" fill="#ffffff" opacity="0.82"/><circle cx="648.6" cy="581.1" r="199.7" fill="#A56BFF" opacity="0.09"/><circle cx="648.6" cy="581.1" r="99.9" fill="#A56BFF" opacity="0.20"/><circle cx="648.6" cy="581.1" r="28.0" fill="#ffffff" opacity="0.82"/><circle cx="396.7" cy="322.1" r="294.5" fill="#38E08A" opacity="0.09"/><circle cx="396.7" cy="322.1" r="147.2" fill="#38E08A" opacity="0.20"/><circle cx="396.7" cy="322.1" r="41.2" fill="#ffffff" opacity="0.82"/><circle cx="558.4" cy="204.1" r="277.2" fill="#38E08A" opacity="0.09"/><circle cx="558.4" cy="204.1" r="138.6" fill="#38E08A" opacity="0.20"/><circle cx="558.4" cy="204.1" r="38.8" fill="#ffffff" opacity="0.82"/><circle cx="307.9" cy="112.0" r="185.9" fill="#00E5FF" opacity="0.09"/><circle cx="307.9" cy="112.0" r="93.0" fill="#00E5FF" opacity="0.20"/><circle cx="307.9" cy="112.0" r="26.0" fill="#ffffff" opacity="0.82"/><circle cx="194.8" cy="327.3" r="314.7" fill="#00E5FF" opacity="0.09"/><circle cx="194.8" cy="327.3" r="157.4" fill="#00E5FF" opacity="0.20"/><circle cx="194.8" cy="327.3" r="44.1" fill="#ffffff" opacity="0.82"/><circle cx="115.2" cy="150.7" r="220.6" fill="#38E08A" opacity="0.09"/><circle cx="115.2" cy="150.7" r="110.3" fill="#38E08A" opacity="0.20"/><circle cx="115.2" cy="150.7" r="30.9" fill="#ffffff" opacity="0.82"/><circle cx="375.8" cy="33.5" r="72.2" fill="#38E08A" opacity="0.09"/><circle cx="375.8" cy="33.5" r="36.1" fill="#38E08A" opacity="0.20"/><circle cx="375.8" cy="33.5" r="10.1" fill="#ffffff" opacity="0.82"/><circle cx="174.1" cy="309.8" r="267.0" fill="#38E08A" opacity="0.09"/><circle cx="174.1" cy="309.8" r="133.5" fill="#38E08A" opacity="0.20"/><circle cx="174.1" cy="309.8" r="37.4" fill="#ffffff" opacity="0.82"/><circle cx="357.4" cy="345.0" r="211.8" fill="#00E5FF" opacity="0.09"/><circle cx="357.4" cy="345.0" r="105.9" fill="#00E5FF" opacity="0.20"/><circle cx="357.4" cy="345.0" r="29.7" fill="#ffffff" opacity="0.82"/><circle cx="385.4" cy="66.8" r="288.4" fill="#00E5FF" opacity="0.09"/><circle cx="385.4" cy="66.8" r="144.2" fill="#00E5FF" opacity="0.20"/><circle cx="385.4" cy="66.8" r="40.4" fill="#ffffff" opacity="0.82"/><circle cx="602.4" cy="126.3" r="124.3" fill="#00E5FF" opacity="0.09"/><circle cx="602.4" cy="126.3" r="62.2" fill="#00E5FF" opacity="0.20"/><circle cx="602.4" cy="126.3" r="17.4" fill="#ffffff" opacity="0.82"/><circle cx="992.9" cy="465.9" r="217.5" fill="#A56BFF" opacity="0.09"/><circle cx="992.9" cy="465.9" r="108.7" fill="#A56BFF" opacity="0.20"/><circle cx="992.9" cy="465.9" r="30.4" fill="#ffffff" opacity="0.82"/><circle cx="986.8" cy="367.0" r="301.5" fill="#00E5FF" opacity="0.09"/><circle cx="986.8" cy="367.0" r="150.8" fill="#00E5FF" opacity="0.20"/><circle cx="986.8" cy="367.0" r="42.2" fill="#ffffff" opacity="0.82"/><circle cx="997.4" cy="124.9" r="128.5" fill="#38E08A" opacity="0.09"/><circle cx="997.4" cy="124.9" r="64.3" fill="#38E08A" opacity="0.20"/><circle cx="997.4" cy="124.9" r="18.0" fill="#ffffff" opacity="0.82"/><circle cx="204.3" cy="153.4" r="186.1" fill="#00E5FF" opacity="0.09"/><circle cx="204.3" cy="153.4" r="93.1" fill="#00E5FF" opacity="0.20"/><circle cx="204.3" cy="153.4" r="26.1" fill="#ffffff" opacity="0.82"/><circle cx="454.5" cy="160.7" r="102.8" fill="#A56BFF" opacity="0.09"/><circle cx="454.5" cy="160.7" r="51.4" fill="#A56BFF" opacity="0.20"/><circle cx="454.5" cy="160.7" r="14.4" fill="#ffffff" opacity="0.82"/><circle cx="1066.6" cy="384.3" r="69.8" fill="#00E5FF" opacity="0.09"/><circle cx="1066.6" cy="384.3" r="34.9" fill="#00E5FF" opacity="0.20"/><circle cx="1066.6" cy="384.3" r="9.8" fill="#ffffff" opacity="0.82"/><circle cx="398.9" cy="541.6" r="296.9" fill="#00E5FF" opacity="0.09"/><circle cx="398.9" cy="541.6" r="148.4" fill="#00E5FF" opacity="0.20"/><circle cx="398.9" cy="541.6" r="41.6" fill="#ffffff" opacity="0.82"/><circle cx="735.6" cy="626.8" r="238.6" fill="#A56BFF" opacity="0.09"/><circle cx="735.6" cy="626.8" r="119.3" fill="#A56BFF" opacity="0.20"/><circle cx="735.6" cy="626.8" r="33.4" fill="#ffffff" opacity="0.82"/><circle cx="578.8" cy="206.7" r="78.7" fill="#00E5FF" opacity="0.09"/><circle cx="578.8" cy="206.7" r="39.3" fill="#00E5FF" opacity="0.20"/><circle cx="578.8" cy="206.7" r="11.0" fill="#ffffff" opacity="0.82"/><circle cx="327.2" cy="16.9" r="338.7" fill="#A56BFF" opacity="0.09"/><circle cx="327.2" cy="16.9" r="169.4" fill="#A56BFF" opacity="0.20"/><circle cx="327.2" cy="16.9" r="47.4" fill="#ffffff" opacity="0.82"/><circle cx="1033.9" cy="484.3" r="181.2" fill="#00E5FF" opacity="0.09"/><circle cx="1033.9" cy="484.3" r="90.6" fill="#00E5FF" opacity="0.20"/><circle cx="1033.9" cy="484.3" r="25.4" fill="#ffffff" opacity="0.82"/><circle cx="572.3" cy="343.8" r="80.5" fill="#38E08A" opacity="0.09"/><circle cx="572.3" cy="343.8" r="40.2" fill="#38E08A" opacity="0.20"/><circle cx="572.3" cy="343.8" r="11.3" fill="#ffffff" opacity="0.82"/><circle cx="1133.8" cy="360.5" r="316.4" fill="#00E5FF" opacity="0.09"/><circle cx="1133.8" cy="360.5" r="158.2" fill="#00E5FF" opacity="0.20"/><circle cx="1133.8" cy="360.5" r="44.3" fill="#ffffff" opacity="0.82"/><circle cx="387.0" cy="442.6" r="68.7" fill="#A56BFF" opacity="0.09"/><circle cx="387.0" cy="442.6" r="34.4" fill="#A56BFF" opacity="0.20"/><circle cx="387.0" cy="442.6" r="9.6" fill="#ffffff" opacity="0.82"/><circle cx="149.1" cy="36.5" r="116.2" fill="#38E08A" opacity="0.09"/><circle cx="149.1" cy="36.5" r="58.1" fill="#38E08A" opacity="0.20"/><circle cx="149.1" cy="36.5" r="16.3" fill="#ffffff" opacity="0.82"/><circle cx="579.4" cy="345.4" r="229.2" fill="#38E08A" opacity="0.09"/><circle cx="579.4" cy="345.4" r="114.6" fill="#38E08A" opacity="0.20"/><circle cx="579.4" cy="345.4" r="32.1" fill="#ffffff" opacity="0.82"/><circle cx="723.7" cy="603.2" r="200.3" fill="#00E5FF" opacity="0.09"/><circle cx="723.7" cy="603.2" r="100.2" fill="#00E5FF" opacity="0.20"/><circle cx="723.7" cy="603.2" r="28.0" fill="#ffffff" opacity="0.82"/><circle cx="608.0" cy="258.0" r="106.2" fill="#A56BFF" opacity="0.09"/><circle cx="608.0" cy="258.0" r="53.1" fill="#A56BFF" opacity="0.20"/><circle cx="608.0" cy="258.0" r="14.9" fill="#ffffff" opacity="0.82"/><circle cx="467.0" cy="130.6" r="180.8" fill="#00E5FF" opacity="0.09"/><circle cx="467.0" cy="130.6" r="90.4" fill="#00E5FF" opacity="0.20"/><circle cx="467.0" cy="130.6" r="25.3" fill="#ffffff" opacity="0.82"/><circle cx="433.2" cy="541.2" r="318.6" fill="#A56BFF" opacity="0.09"/><circle cx="433.2" cy="541.2" r="159.3" fill="#A56BFF" opacity="0.20"/><circle cx="433.2" cy="541.2" r="44.6" fill="#ffffff" opacity="0.82"/><circle cx="1053.3" cy="498.5" r="57.3" fill="#A56BFF" opacity="0.09"/><circle cx="1053.3" cy="498.5" r="28.6" fill="#A56BFF" opacity="0.20"/><circle cx="1053.3" cy="498.5" r="8.0" fill="#ffffff" opacity="0.82"/><circle cx="494.0" cy="528.1" r="179.4" fill="#A56BFF" opacity="0.09"/><circle cx="494.0" cy="528.1" r="89.7" fill="#A56BFF" opacity="0.20"/><circle cx="494.0" cy="528.1" r="25.1" fill="#ffffff" opacity="0.82"/><circle cx="1131.3" cy="271.0" r="110.0" fill="#A56BFF" opacity="0.09"/><circle cx="1131.3" cy="271.0" r="55.0" fill="#A56BFF" opacity="0.20"/><circle cx="1131.3" cy="271.0" r="15.4" fill="#ffffff" opacity="0.82"/><circle cx="1191.6" cy="278.9" r="337.0" fill="#A56BFF" opacity="0.09"/><circle cx="1191.6" cy="278.9" r="168.5" fill="#A56BFF" opacity="0.20"/><circle cx="1191.6" cy="278.9" r="47.2" fill="#ffffff" opacity="0.82"/><circle cx="69.0" cy="266.5" r="197.0" fill="#00E5FF" opacity="0.09"/><circle cx="69.0" cy="266.5" r="98.5" fill="#00E5FF" opacity="0.20"/><circle cx="69.0" cy="266.5" r="27.6" fill="#ffffff" opacity="0.82"/><circle cx="32.9" cy="137.4" r="82.9" fill="#A56BFF" opacity="0.09"/><circle cx="32.9" cy="137.4" r="41.4" fill="#A56BFF" opacity="0.20"/><circle cx="32.9" cy="137.4" r="11.6" fill="#ffffff" opacity="0.82"/><circle cx="474.0" cy="316.2" r="188.1" fill="#00E5FF" opacity="0.09"/><circle cx="474.0" cy="316.2" r="94.0" fill="#00E5FF" opacity="0.20"/><circle cx="474.0" cy="316.2" r="26.3" fill="#ffffff" opacity="0.82"/><circle cx="863.0" cy="529.1" r="278.1" fill="#00E5FF" opacity="0.09"/><circle cx="863.0" cy="529.1" r="139.1" fill="#00E5FF" opacity="0.20"/><circle cx="863.0" cy="529.1" r="38.9" fill="#ffffff" opacity="0.82"/><circle cx="371.1" cy="407.9" r="70.1" fill="#38E08A" opacity="0.09"/><circle cx="371.1" cy="407.9" r="35.0" fill="#38E08A" opacity="0.20"/><circle cx="371.1" cy="407.9" r="9.8" fill="#ffffff" opacity="0.82"/><circle cx="46.6" cy="589.7" r="204.5" fill="#38E08A" opacity="0.09"/><circle cx="46.6" cy="589.7" r="102.2" fill="#38E08A" opacity="0.20"/><circle cx="46.6" cy="589.7" r="28.6" fill="#ffffff" opacity="0.82"/><circle cx="1109.8" cy="502.7" r="232.0" fill="#00E5FF" opacity="0.09"/><circle cx="1109.8" cy="502.7" r="116.0" fill="#00E5FF" opacity="0.20"/><circle cx="1109.8" cy="502.7" r="32.5" fill="#ffffff" opacity="0.82"/><circle cx="1186.1" cy="322.7" r="227.6" fill="#38E08A" opacity="0.09"/><circle cx="1186.1" cy="322.7" r="113.8" fill="#38E08A" opacity="0.20"/><circle cx="1186.1" cy="322.7" r="31.9" fill="#ffffff" opacity="0.82"/><circle cx="50.0" cy="199.7" r="158.2" fill="#00E5FF" opacity="0.09"/><circle cx="50.0" cy="199.7" r="79.1" fill="#00E5FF" opacity="0.20"/><circle cx="50.0" cy="199.7" r="22.1" fill="#ffffff" opacity="0.82"/><circle cx="411.6" cy="520.1" r="102.3" fill="#00E5FF" opacity="0.09"/><circle cx="411.6" cy="520.1" r="51.2" fill="#00E5FF" opacity="0.20"/><circle cx="411.6" cy="520.1" r="14.3" fill="#ffffff" opacity="0.82"/><circle cx="40.5" cy="209.7" r="223.8" fill="#A56BFF" opacity="0.09"/><circle cx="40.5" cy="209.7" r="111.9" fill="#A56BFF" opacity="0.20"/><circle cx="40.5" cy="209.7" r="31.3" fill="#ffffff" opacity="0.82"/><circle cx="959.6" cy="290.1" r="183.6" fill="#00E5FF" opacity="0.09"/><circle cx="959.6" cy="290.1" r="91.8" fill="#00E5FF" opacity="0.20"/><circle cx="959.6" cy="290.1" r="25.7" fill="#ffffff" opacity="0.82"/><circle cx="866.1" cy="178.1" r="80.6" fill="#38E08A" opacity="0.09"/><circle cx="866.1" cy="178.1" r="40.3" fill="#38E08A" opacity="0.20"/><circle cx="866.1" cy="178.1" r="11.3" fill="#ffffff" opacity="0.82"/><rect width="1200" height="630" fill="url(#g)"/><text x="1170" y="604" text-anchor="end" font-family="sans-serif" font-size="26" fill="#E4B24C" opacity="0.92">WARHOOK LEO CROC</text></svg>