<svg xmlns="http://www.w3.org/2000/svg" width="1200" height="630" viewBox="0 0 1200 630"><defs><linearGradient id="g" x1="0" y1="0" x2="0" y2="1"><stop offset="0.55" stop-color="#0a0e17" stop-opacity="0"/><stop offset="1" stop-color="#0a0e17" stop-opacity="0.85"/></linearGradient></defs><rect width="1200" height="630" fill="#0a0e17"/><path d="M315.1 135.4 L262.9 214.8 L404.5 240.9 L576.0 166.0 L481.1 145.4 L553.2 72.8" fill="none" stroke="#A56BFF" stroke-width="1.5" opacity="0.28"/><path d="M1166.4 618.8 L1201.8 581.3 L1295.6 553.7 L1423.1 656.8 L1367.3 737.6 L1513.7 634.9" fill="none" stroke="#00E5FF" stroke-width="1.5" opacity="0.28"/><path d="M329.4 224.0 L223.4 257.1 L307.3 341.1 L196.1 223.5 L384.9 266.2 L414.3 170.9" fill="none" stroke="#A56BFF" stroke-width="1.5" opacity="0.28"/><path d="M605.8 170.4 L555.9 259.4 L383.6 388.9 L542.2 276.2 L445.5 280.9 L497.9 203.9" fill="none" stroke="#00E5FF" stroke-width="1.5" opacity="0.28"/><path d="M761.6 346.5 L925.8 464.7 L783.3 534.5 L894.1 586.1 L863.7 586.8 L688.1 591.5" fill="none" stroke="#38E08A" stroke-width="1.5" opacity="0.28"/><path d="M15.2 418.7 L59.0 505.5 L92.5 557.3 L-16.8 481.5 L-22.6 481.7 L90.8 481.2" fill="none" stroke="#A56BFF" stroke-width="1.5" opacity="0.28"/><path d="M573.8 67.8 L700.3 172.2 L590.3 214.7 L653.4 287.6 L564.8 319.5 L719.9 347.2" fill="none" stroke="#00E5FF" stroke-width="1.5" opacity="0.28"/><path d="M278.1 211.2 L153.2 333.3 L-34.7 337.9 L-134.7 391.4 L-246.5 370.7 L-292.2 283.6" fill="none" stroke="#A56BFF" stroke-width="1.5" opacity="0.28"/><path d="M1020.9 136.6 L931.9 174.0 L979.6 77.7 L1076.3 106.7 L960.8 109.4 L972.3 121.0" fill="none" stroke="#A56BFF" stroke-width="1.5" opacity="0.28"/><circle cx="133.3" cy="240.0" r="286.5" fill="#A56BFF" opacity="0.09"/><circle cx="133.3" cy="240.0" r="143.3" fill="#A56BFF" opacity="0.20"/><circle cx="133.3" cy="240.0" r="40.1" fill="#ffffff" opacity="0.82"/><circle cx="616.7" cy="89.6" r="280.9" fill="#38E08A" opacity="0.09"/><circle cx="616.7" cy="89.6" r="140.5" fill="#38E08A" opacity="0.20"/><circle cx="616.7" cy="89.6" r="39.3" fill="#ffffff" opacity="0.82"/><circle cx="163.7" cy="270.4" r="140.8" fill="#38E08A" opacity="0.09"/><circle cx="163.7" cy="270.4" r="70.4" fill="#38E08A" opacity="0.20"/><circle cx="163.7" cy="270.4" r="19.7" fill="#ffffff" opacity="0.82"/><circle cx="1006.0" cy="345.6" r="115.7" fill="#A56BFF" opacity="0.09"/><circle cx="1006.0" cy="345.6" r="57.9" fill="#A56BFF" opacity="0.20"/><circle cx="1006.0" cy="345.6" r="16.2" fill="#ffffff" opacity="0.82"/><circle cx="221.7" cy="270.5" r="68.0" fill="#38E08A" opacity="0.09"/><circle cx="221.7" cy="270.5" r="34.0" fill="#38E08A" opacity="0.20"/><circle cx="221.7" cy="270.5" r="9.5" fill="#ffffff" opacity="0.82"/><circle cx="826.7" cy="7.5" r="154.9" fill="#38E08A" opacity="0.09"/><circle cx="826.7" cy="7.5" r="77.4" fill="#38E08A" opacity="0.20"/><circle cx="826.7" cy="7.5" r="21.7" fill="#ffffff" opacity="0.82"/><circle cx="1080.7" cy="7.5" r="79.6" fill="#00E5FF" opacity="0.09"/><circle cx="1080.7" cy="7.5" r="39.8" fill="#00E5FF" opacity="0.20"/><circle cx="1080.7" cy="7.5" r="11.1" fill="#ffffff" opacity="0.82"/><circle cx="606.0" cy="121.3" r="148.5" fill="#38E08A" opacity="0.09"/><circle cx="606.0" cy="121.3" r="74.3" fill="#38E08A" opacity="0.20"/><circle cx="606.0" cy="121.3" r="20.8" fill="#ffffff" opacity="0.82"/><circle cx="162.4" cy="165.5" r="213.6" fill="#A56BFF" opacity="0.09"/><circle cx="162.4" cy="165.5" r="106.8" fill="#A56BFF" opacity="0.20"/><circle cx="162.4" cy="165.5" r="29.9" fill="#ffffff" opacity="0.82"/><circle cx="449.2" cy="414.9" r="94.0" fill="#A56BFF" opacity="0.09"/><circle cx="449.2" cy="414.9" r="47.0" fill="#A56BFF" opacity="0.20"/><circle cx="449.2" cy="414.9" r="13.2" fill="#ffffff" opacity="0.82"/><circle cx="782.2" cy="550.6" r="158.5" fill="#00E5FF" opacity="0.09"/><circle cx="782.2" cy="550.6" r="79.3" fill="#00E5FF" opacity="0.20"/><circle cx="782.2" cy="550.6" r="22.2" fill="#ffffff" opacity="0.82"/><circle cx="950.4" cy="508.4" r="102.5" fill="#A56BFF" opacity="0.09"/><circle cx="950.4" cy="508.4" r="51.2" fill="#A56BFF" opacity="0.20"/><circle cx="950.4" cy="508.4" r="14.3" fill="#ffffff" opacity="0.82"/><circle cx="1027.3" cy="284.7" r="256.0" fill="#00E5FF" opacity="0.09"/><circle cx="1027.3" cy="284.7" r="128.0" fill="#00E5FF" opacity="0.20"/><circle cx="1027.3" cy="284.7" r="35.8" fill="#ffffff" opacity="0.82"/><circle cx="1057.8" cy="418.4" r="69.7" fill="#38E08A" opacity="0.09"/><circle cx="1057.8" cy="418.4" r="34.8" fill="#38E08A" opacity="0.20"/><circle cx="1057.8" cy="418.4" r="9.8" fill="#ffffff" opacity="0.82"/><circle cx="62.9" cy="149.0" r="187.7" fill="#A56BFF" opacity="0.09"/><circle cx="62.9" cy="149.0" r="93.9" fill="#A56BFF" opacity="0.20"/><circle cx="62.9" cy="149.0" r="26.3" fill="#ffffff" opacity="0.82"/><circle cx="900.1" cy="167.9" r="86.3" fill="#A56BFF" opacity="0.09"/><circle cx="900.1" cy="167.9" r="43.1" fill="#A56BFF" opacity="0.20"/><circle cx="900.1" cy="167.9" r="12.1" fill="#ffffff" opacity="0.82"/><circle cx="107.5" cy="111.8" r="130.4" fill="#00E5FF" opacity="0.09"/><circle cx="107.5" cy="111.8" r="65.2" fill="#00E5FF" opacity="0.20"/><circle cx="107.5" cy="111.8" r="18.3" fill="#ffffff" opacity="0.82"/><circle cx="221.5" cy="182.3" r="329.7" fill="#00E5FF" opacity="0.09"/><circle cx="221.5" cy="182.3" r="164.9" fill="#00E5FF" opacity="0.20"/><circle cx="221.5" cy="182.3" r="46.2" fill="#ffffff" opacity="0.82"/><circle cx="1093.3" cy="459.9" r="154.9" fill="#00E5FF" opacity="0.09"/><circle cx="1093.3" cy="459.9" r="77.5" fill="#00E5FF" opacity="0.20"/><circle cx="1093.3" cy="459.9" r="21.7" fill="#ffffff" opacity="0.82"/><circle cx="273.5" cy="495.5" r="185.6" fill="#A56BFF" opacity="0.09"/><circle cx="273.5" cy="495.5" r="92.8" fill="#A56BFF" opacity="0.20"/><circle cx="273.5" cy="495.5" r="26.0" fill="#ffffff" opacity="0.82"/><circle cx="915.1" cy="470.5" r="252.7" fill="#00E5FF" opacity="0.09"/><circle cx="915.1" cy="470.5" r="126.4" fill="#00E5FF" opacity="0.20"/><circle cx="915.1" cy="470.5" r="35.4" fill="#ffffff" opacity="0.82"/><circle cx="712.1" cy="227.8" r="325.2" fill="#38E08A" opacity="0.09"/><circle cx="712.1" cy="227.8" r="162.6" fill="#38E08A" opacity="0.20"/><circle cx="712.1" cy="227.8" r="45.5" fill="#ffffff" opacity="0.82"/><circle cx="429.4" cy="35.5" r="229.5" fill="#38E08A" opacity="0.09"/><circle cx="429.4" cy="35.5" r="114.8" fill="#38E08A" opacity="0.20"/><circle cx="429.4" cy="35.5" r="32.1" fill="#ffffff" opacity="0.82"/><circle cx="373.6" cy="276.7" r="266.8" fill="#00E5FF" opacity="0.09"/><circle cx="373.6" cy="276.7" r="133.4" fill="#00E5FF" opacity="0.20"/><circle cx="373.6" cy="276.7" r="37.4" fill="#ffffff" opacity="0.82"/><circle cx="331.4" cy="384.7" r="168.7" fill="#38E08A" opacity="0.09"/><circle cx="331.4" cy="384.7" r="84.4" fill="#38E08A" opacity="0.20"/><circle cx="331.4" cy="384.7" r="23.6" fill="#ffffff" opacity="0.82"/><circle cx="940.3" cy="293.5" r="235.7" fill="#00E5FF" opacity="0.09"/><circle cx="940.3" cy="293.5" r="117.8" fill="#00E5FF" opacity="0.20"/><circle cx="940.3" cy="293.5" r="33.0" fill="#ffffff" opacity="0.82"/><circle cx="11.4" cy="477.7" r="168.6" fill="#A56BFF" opacity="0.09"/><circle cx="11.4" cy="477.7" r="84.3" fill="#A56BFF" opacity="0.20"/><circle cx="11.4" cy="477.7" r="23.6" fill="#ffffff" opacity="0.82"/><circle cx="1184.3" cy="376.4" r="276.6" fill="#A56BFF" opacity="0.09"/><circle cx="1184.3" cy="376.4" r="138.3" fill="#A56BFF" opacity="0.20"/><circle cx="1184.3" cy="376.4" r="38.7" fill="#ffffff" opacity="0.82"/><circle cx="1007.2" cy="252.5" r="345.8" fill="#38E08A" opacity="0.09"/><circle cx="1007.2" cy="252.5" r="172.9" fill="#38E08A" opacity="0.20"/><circle cx="1007.2" cy="252.5" r="48.4" fill="#ffffff" opacity="0.82"/><circle cx="919.3" cy="415.2" r="74.5" fill="#00E5FF" opacity="0.09"/><circle cx="919.3" cy="415.2" r="37.3" fill="#00E5FF" opacity="0.20"/><circle cx="919.3" cy="415.2" r="10.4" fill="#ffffff" opacity="0.82"/><circle cx="451.9" cy="423.5" r="214.4" fill="#00E5FF" opacity="0.09"/><circle cx="451.9" cy="423.5" r="107.2" fill="#00E5FF" opacity="0.20"/><circle cx="451.9" cy="423.5" r="30.0" fill="#ffffff" opacity="0.82"/><circle cx="312.6" cy="227.5" r="187.5" fill="#00E5FF" opacity="0.09"/><circle cx="312.6" cy="227.5" r="93.7" fill="#00E5FF" opacity="0.20"/><circle cx="312.6" cy="227.5" r="26.2" fill="#ffffff" opacity="0.82"/><circle cx="1103.1" cy="113.2" r="228.9" fill="#00E5FF" opacity="0.09"/><circle cx="1103.1" cy="113.2" r="114.4" fill="#00E5FF" opacity="0.20"/><circle cx="1103.1" cy="113.2" r="32.0" fill="#ffffff" opacity="0.82"/><circle cx="844.7" cy="232.3" r="161.7" fill="#00E5FF" opacity="0.09"/><circle cx="844.7" cy="232.3" r="80.9" fill="#00E5FF" opacity="0.20"/><circle cx="844.7" cy="232.3" r="22.6" fill="#ffffff" opacity="0.82"/><circle cx="305.1" cy="607.9" r="66.1" fill="#A56BFF" opacity="0.09"/><circle cx="305.1" cy="607.9" r="33.1" fill="#A56BFF" opacity="0.20"/><circle cx="305.1" cy="607.9" r="9.3" fill="#ffffff" opacity="0.82"/><circle cx="773.7" cy="160.3" r="217.9" fill="#38E08A" opacity="0.09"/><circle cx="773.7" cy="160.3" r="108.9" fill="#38E08A" opacity="0.20"/><circle cx="773.7" cy="160.3" r="30.5" fill="#ffffff" opacity="0.82"/><circle cx="355.6" cy="46.1" r="71.9" fill="#38E08A" opacity="0.09"/><circle cx="355.6" cy="46.1" r="35.9" fill="#38E08A" opacity="0.20"/><circle cx="355.6" cy="46.1" r="10.1" fill="#ffffff" opacity="0.82"/><circle cx="845.3" cy="274.2" r="56.3" fill="#A56BFF" opacity="0.09"/><circle cx="845.3" cy="274.2" r="28.1" fill="#A56BFF" opacity="0.20"/><circle cx="845.3" cy="274.2" r="7.9" fill="#ffffff" opacity="0.82"/><circle cx="571.8" cy="1.4" r="243.6" fill="#A56BFF" opacity="0.09"/><circle cx="571.8" cy="1.4" r="121.8" fill="#A56BFF" opacity="0.20"/><circle cx="571.8" cy="1.4" r="34.1" fill="#ffffff" opacity="0.82"/><circle cx="751.0" cy="594.9" r="157.5" fill="#A56BFF" opacity="0.09"/><circle cx="751.0" cy="594.9" r="78.8" fill="#A56BFF" opacity="0.20"/><circle cx="751.0" cy="594.9" r="22.1" fill="#ffffff" opacity="0.82"/><circle cx="318.1" cy="153.7" r="61.8" fill="#00E5FF" opacity="0.09"/><circle cx="318.1" cy="153.7" r="30.9" fill="#00E5FF" opacity="0.20"/><circle cx="318.1" cy="153.7" r="8.7" fill="#ffffff" opacity="0.82"/><circle cx="944.8" cy="457.9" r="59.5" fill="#00E5FF" opacity="0.09"/><circle cx="944.8" cy="457.9" r="29.8" fill="#00E5FF" opacity="0.20"/><circle cx="944.8" cy="457.9" r="8.3" fill="#ffffff" opacity="0.82"/><circle cx="489.2" cy="210.3" r="218.9" fill="#38E08A" opacity="0.09"/><circle cx="489.2" cy="210.3" r="109.5" fill="#38E08A" opacity="0.20"/><circle cx="489.2" cy="210.3" r="30.7" fill="#ffffff" opacity="0.82"/><circle cx="81.1" cy="281.4" r="209.2" fill="#38E08A" opacity="0.09"/><circle cx="81.1" cy="281.4" r="104.6" fill="#38E08A" opacity="0.20"/><circle cx="81.1" cy="281.4" r="29.3" fill="#ffffff" opacity="0.82"/><circle cx="1016.8" cy="227.9" r="60.4" fill="#A56BFF" opacity="0.09"/><circle cx="1016.8" cy="227.9" r="30.2" fill="#A56BFF" opacity="0.20"/><circle cx="1016.8" cy="227.9" r="8.5" fill="#ffffff" opacity="0.82"/><circle cx="995.0" cy="442.7" r="224.6" fill="#00E5FF" opacity="0.09"/><circle cx="995.0" cy="442.7" r="112.3" fill="#00E5FF" opacity="0.20"/><circle cx="995.0" cy="442.7" r="31.4" fill="#ffffff" opacity="0.82"/><circle cx="561.8" cy="327.0" r="335.7" fill="#38E08A" opacity="0.09"/><circle cx="561.8" cy="327.0" r="167.9" fill="#38E08A" opacity="0.20"/><circle cx="561.8" cy="327.0" r="47.0" fill="#ffffff" opacity="0.82"/><circle cx="873.8" cy="275.4" r="59.0" fill="#A56BFF" opacity="0.09"/><circle cx="873.8" cy="275.4" r="29.5" fill="#A56BFF" opacity="0.20"/><circle cx="873.8" cy="275.4" r="8.3" fill="#ffffff" opacity="0.82"/><circle cx="681.9" cy="99.1" r="263.7" fill="#A56BFF" opacity="0.09"/><circle cx="681.9" cy="99.1" r="131.9" fill="#A56BFF" opacity="0.20"/><circle cx="681.9" cy="99.1" r="36.9" fill="#ffffff" opacity="0.82"/><circle cx="1039.2" cy="128.0" r="109.6" fill="#00E5FF" opacity="0.09"/><circle cx="1039.2" cy="128.0" r="54.8" fill="#00E5FF" opacity="0.20"/><circle cx="1039.2" cy="128.0" r="15.3" fill="#ffffff" opacity="0.82"/><rect width="1200" height="630" fill="url(#g)"/><text x="1170" y="604" text-anchor="end" font-family="sans-serif" font-size="26" fill="#E4B24C" opacity="0.92">WARHOOK LEO CROC</text></svg>